<?xml version="1.0" standalone="no"?><!DOCTYPE svg PUBLIC "-//W3C//DTD SVG 1.1//EN" "http://www.w3.org/Graphics/SVG/1.1/DTD/svg11.dtd"><svg t="1723714130131" class="icon" viewBox="0 0 1024 1024" version="1.1" xmlns="http://www.w3.org/2000/svg" p-id="7769" xmlns:xlink="http://www.w3.org/1999/xlink" width="200" height="200"><path d="M966.920803 454.920803c0 251.173148-203.747654 454.920803-454.920803 454.920802-251.230013 0-454.920803-203.747654-454.920803-454.920802C57.079197 203.690789 260.769987 0 512 0c251.173148 0 454.920803 203.690789 454.920803 454.920803" fill="#FFCC4D" p-id="7770"></path><path d="M735.508277 458.588602a10.576909 10.576909 0 0 0-15.211415-0.824544c-0.938274 0.824544-93.912713 82.454395-208.296862 82.454395-114.099824 0-207.358588-81.629852-208.296862-82.454395a10.633774 10.633774 0 0 0-15.211415 0.824544 16.206554 16.206554 0 0 0-2.246171 17.855641C289.316267 482.557241 363.26933 625.516104 512 625.516104s222.712165-142.958862 225.754448-149.071861a16.206554 16.206554 0 0 0-2.246171-17.855641z" fill="#664500" p-id="7771"></path><path d="M381.011241 658.327266l-43.757694-63.091828s-15.438875-24.651021-40.118329-9.240579c-24.651021 15.38201-9.212146 40.061463-9.212146 40.061463l49.984423 96.10202s4.094287 21.836199-26.101081-2.587363c-13.164271-10.633774-5.601212-4.634506-5.601212-4.634505l-12.510322-10.264151-156.123133-128.173936s-20.158678-21.267548-38.639836 1.194167c-18.424293 22.490147 6.340459 38.12805 6.340459 38.12805l147.650233 121.293259c-3.411906 3.411906-13.704489 15.182982-17.05953 18.850781l-157.999681-129.652429s-20.187111-21.29598-38.611404 1.165735c-18.481158 22.490147 6.312026 38.12805 6.312027 38.128049l157.942816 129.709294c-2.928553 3.980557-10.321016 13.533894-13.050541 17.457586l-136.24878-111.853652s-20.187111-21.267548-38.611403 1.194167c-18.50959 22.490147 6.312026 38.156482 6.312026 38.156482l144.83541 118.96179c-1.819683 5.060994-10.321016 18.367427-11.657345 23.314691l-104.404324-85.638841s-20.158678-21.381278-38.582971 1.165734c-18.481158 22.490147 6.312026 38.12805 6.312026 38.12805l168.605023 138.409654 11.230857 9.269012a174.575858 174.575858 0 0 0 238.833421-253.561483c-20.727329-22.234254-38.668268-46.999005-56.068989-71.991217z m630.918288 139.774417c-18.424293-22.547012-38.582971-1.165735-38.58297-1.165735l-104.404324 85.638842c-1.33633-4.947264-9.837662-18.28213-11.657346-23.314692l144.835411-118.961789s24.821616-15.666335 6.340458-38.156483c-18.424293-22.461715-38.611403-1.194167-38.611403-1.194167l-136.24878 111.853652c-2.729525-3.952124-10.15042-13.505461-13.050541-17.457585l157.942816-129.709294s24.821616-15.637903 6.340459-38.12805c-18.424293-22.461715-38.582971-1.165735-38.58297-1.165735l-158.028114 129.652429c-3.326608-3.667799-13.619192-15.438875-17.05953-18.850781l147.650233-121.293259s24.736319-15.637903 6.340458-38.128049c-18.481158-22.461715-38.639836-1.194167-38.639835-1.194167l-156.123133 128.173936-12.48189 10.26415s28.148225-23.911775-5.601212 4.634506c-33.77787 28.54628-26.101081 2.587362-26.101081 2.587362l49.984423-96.102019s15.438875-24.679454-9.212146-40.061464c-24.707886-15.410442-40.118328 9.240579-40.118329 9.240579l-43.729262 63.091829c-17.429153 24.992212-35.370092 49.756963-56.125854 72.01965a174.575858 174.575858 0 0 0 238.861854 253.561482l11.25929-9.269011 168.605023-138.409655c-0.142163-0.028433 24.651021-15.666335 6.198295-38.156482z" fill="#F4900C" p-id="7772"></path><path d="M787.141788 312.274698C785.691728 308.805927 750.605961 227.460401 678.501014 227.460401c-72.048082 0-107.133849 81.345526-108.583909 84.814297a13.306433 13.306433 0 0 0 3.497203 15.239847 11.771076 11.771076 0 0 0 14.870224 0.341191c0.284326-0.255893 30.735587-23.200961 90.216482-23.200961 59.111272 0 89.5341 22.660742 90.244914 23.200961a11.714211 11.714211 0 0 0 14.841791-0.284326 13.306433 13.306433 0 0 0 3.554069-15.296712z m-312.758052 0C472.905244 308.805927 437.847909 227.460401 365.742962 227.460401c-72.048082 0-107.133849 81.345526-108.612342 84.814297a13.306433 13.306433 0 0 0 3.525637 15.239847c4.264883 3.639366 10.406313 3.753097 14.870223 0.341191 0.312758-0.255893 30.735587-23.200961 90.216482-23.200961 59.139704 0 89.5341 22.660742 90.216482 23.200961a11.771076 11.771076 0 0 0 7.2503 2.530497 11.856373 11.856373 0 0 0 7.591491-2.814823 13.334866 13.334866 0 0 0 3.582501-15.296712z" fill="#664500" p-id="7773"></path><path d="M318.146873 724.404513s-73.725603 94.225471 13.761354 212.106824c6.027701 8.103277 21.324413 4.151152 14.813359-5.345319-7.108138-10.349448-78.189513-110.773215-11.37302-200.648507 0 0-10.832802-1.33633-17.201693-6.112998z m386.199329 2.78639s73.754035 94.225471-13.761354 212.106824c-6.027701 8.103277-21.324413 4.151152-14.813359-5.345319 7.108138-10.349448 78.189513-110.773215 11.37302-200.648507-0.028433 0.028433 10.832802-1.307897 17.201693-6.112998z" fill="#B55005" p-id="7774"></path></svg>