<?xml version="1.0" standalone="no"?><!DOCTYPE svg PUBLIC "-//W3C//DTD SVG 1.1//EN" "http://www.w3.org/Graphics/SVG/1.1/DTD/svg11.dtd"><svg t="1723714189960" class="icon" viewBox="0 0 1024 1024" version="1.1" xmlns="http://www.w3.org/2000/svg" p-id="10400" xmlns:xlink="http://www.w3.org/1999/xlink" width="200" height="200"><path d="M512.968673 512.008098m-511.990962 0a511.990962 511.990962 0 1 0 1023.981924 0 511.990962 511.990962 0 1 0-1023.981924 0Z" fill="#F4CD33" p-id="10401"></path><path d="M149.873042 522.456893A511.990962 511.990962 0 0 1 622.26307 12.03325 511.990962 511.990962 0 1 0 512.968673 1023.99906c13.374458 0 26.53994-0.940392 39.600933-1.985271A511.990962 511.990962 0 0 1 149.873042 522.456893z" fill="#F4CD33" opacity=".43" p-id="10402"></path><path d="M151.544849 412.640056a26.957891 26.957891 0 0 1-17.762952-46.91509C301.903011 218.710418 450.275902 343.05108 451.843221 344.827376a26.96834 26.96834 0 0 1-35.107951 40.959277c-4.701958-3.866054-114.936747-94.561596-247.427469 20.89759a27.375843 27.375843 0 0 1-17.762952 5.955813z" fill="#5B0D11" p-id="10403"></path><path d="M661.864004 406.370779a24.345693 24.345693 0 0 1-16.091145-42.631084c151.716505-132.699698 285.670059-20.89759 287.028402-19.330271a24.345693 24.345693 0 0 1-31.346385 36.988735c-4.179518-3.657078-103.861024-85.262168-223.186264 19.016807a24.554669 24.554669 0 0 1-16.404608 5.955813z" fill="#5B0D11" p-id="10404"></path><path d="M741.796896 536.50364a94.457108 114.518795 82.69 1 0 227.17603-29.142222 94.457108 114.518795 82.69 1 0-227.17603 29.142222Z" fill="#F3A929" p-id="10405"></path><path d="M118.966236 562.72286a107.936054 130.923403 81.9 1 0 259.234532-36.894537 107.936054 130.923403 81.9 1 0-259.234532 36.894537Z" fill="#F3A929" p-id="10406"></path><path d="M486.324245 135.015569a143.252981 143.252981 0 0 1 58.617741-31.346385 199.571987 199.571987 0 0 1 64.887018-7.105181 181.286596 181.286596 0 0 1 64.155602 15.255241 126.534909 126.534909 0 0 1 52.243976 41.795181c-23.718765 2.089759-43.153524 0.835904-62.692771 0.940391s-38.138102-1.358343-57.15491-2.194247-38.033614-2.716687-57.886325-5.015422a437.909004 437.909004 0 0 1-62.170331-12.329578z" fill="#F6DF7E" p-id="10407"></path><path d="M511.610329 820.665506a18.598855 18.598855 0 0 1-8.045572-35.421415C551.838191 762.779181 608.9931 765.704844 648.80301 772.601049c23.718765 4.179518 52.243976-8.881476 57.363885-35.003464a26.957891 26.957891 0 0 0-5.11991-22.673886c-13.060994-16.82256-46.288162-22.987349-58.095301-23.92774a18.598855 18.598855 0 0 1-8.045572-34.585512c41.795181-24.763644 38.556054-54.542711 32.809217-70.111416a48.691385 48.691385 0 0 0-30.510482-31.973313 181.913523 181.913523 0 0 1-128.52018 39.391958 18.703343 18.703343 0 0 1-15.882169-20.89759 18.494367 18.494367 0 0 1 20.89759-15.882169 146.283132 146.283132 0 0 0 101.248825-32.182289 40.018885 40.018885 0 0 1 42.631085-2.821175 94.87506 94.87506 0 0 1 50.572168 78.470452 86.098072 86.098072 0 0 1-22.360422 62.692771 95.3975 95.3975 0 0 1 44.511868 29.57009 64.364578 64.364578 0 0 1 11.807138 52.243975 85.262168 85.262168 0 0 1-100.412921 64.887018c-34.272048-6.060301-83.590361-9.19494-122.564367 9.508404a18.076416 18.076416 0 0 1-7.523133 1.358343z" fill="#5B0D11" p-id="10408"></path></svg>