<?xml version="1.0" standalone="no"?><!DOCTYPE svg PUBLIC "-//W3C//DTD SVG 1.1//EN" "http://www.w3.org/Graphics/SVG/1.1/DTD/svg11.dtd"><svg t="1723714199360" class="icon" viewBox="0 0 1025 1024" version="1.1" xmlns="http://www.w3.org/2000/svg" p-id="10730" xmlns:xlink="http://www.w3.org/1999/xlink" width="200.1953125" height="200"><path d="M1024.730337 511.697055A511.697055 511.697055 0 1 1 513.033282 0a511.697055 511.697055 0 0 1 511.697055 511.697055z" fill="#FDDF6D" p-id="10731"></path><path d="M622.682651 947.879347a511.697055 511.697055 0 0 1-342.312127-892.008083A511.697055 511.697055 0 1 0 854.70136 892.008083a508.315797 508.315797 0 0 1-232.662758 55.871264z" fill="#FCC56B" p-id="10732"></path><path d="M765.661564 353.260963a69.557309 69.557309 0 1 0 138.953605 0H669.376215M409.985417 353.260963a69.557309 69.557309 0 0 0 139.114618 0H313.86108" fill="#FFFFFF" p-id="10733"></path><path d="M293.090495 479.977634a68.91326 68.91326 0 0 0-68.752248 68.91326h137.665508a68.91326 68.91326 0 0 0-68.91326-68.91326zM893.344309 470.799934a68.752248 68.752248 0 0 0-68.752247 68.91326h137.504495a68.752248 68.752248 0 0 0-68.752248-68.91326z" fill="#F9A880" p-id="10734"></path><path d="M464.890607 790.731353a20.770585 20.770585 0 0 1-14.169081-36.066753c34.939667-32.202458 96.607374-52.812031 158.91913-52.812031 66.015039 0 125.267561 19.965524 158.597104 53.295068a20.770585 20.770585 0 1 1-29.465248 29.465249c-25.278929-25.439942-74.709702-41.219146-128.809832-41.219146s-102.886853 16.101229-130.580967 41.702183a20.770585 20.770585 0 0 1-14.169081 5.63543zM904.615169 332.490377H669.376215a20.931598 20.931598 0 0 0 0 41.702183h77.768936a90.327894 90.327894 0 0 0 178.240604-20.931597 20.770585 20.770585 0 0 0-20.770586-20.770586zM835.057861 402.530723a48.303687 48.303687 0 0 1-43.956355-27.855126h88.073722A48.303687 48.303687 0 0 1 835.057861 402.530723zM569.87062 353.260963A20.770585 20.770585 0 0 0 548.77801 332.490377H313.86108a20.931598 20.931598 0 1 0 0 41.702183h77.768936a90.327894 90.327894 0 0 0 178.240604-20.931597zM436.069408 374.19256h87.91271a48.303687 48.303687 0 0 1-87.91271 0z" fill="#7F184C" p-id="10735"></path><path d="M625.41986 99.505595c56.837338 16.101229 95.6413 54.744178 86.624612 86.463599s-62.311756 44.439392-119.149095 28.338163-95.480288-54.744178-86.463599-86.463599 62.311756-44.439392 118.988082-28.338163z" fill="#FCEB88" p-id="10736"></path></svg>