<?xml version="1.0" standalone="no"?><!DOCTYPE svg PUBLIC "-//W3C//DTD SVG 1.1//EN" "http://www.w3.org/Graphics/SVG/1.1/DTD/svg11.dtd"><svg height="701" node-id="1" sillyvg="true" template-height="701" template-width="829" version="1.1" viewBox="0 0 829 701" width="829" xmlns="http://www.w3.org/2000/svg" xmlns:xlink="http://www.w3.org/1999/xlink"><defs node-id="6"></defs><path d="M 621.80 498.20 L 621.30 501.70 L 620.50 505.00 L 619.20 508.10 L 617.60 511.10 L 614.90 514.70 L 611.70 518.20 L 608.10 521.40 L 599.90 526.90 L 588.50 532.50 L 581.60 535.20 L 568.80 539.10 L 572.70 515.70 L 574.30 503.90 L 575.40 492.10 L 575.60 484.20 L 575.30 476.40 L 574.60 468.50 L 570.80 445.50 L 568.10 433.10 L 568.20 432.60 L 568.80 432.20 L 570.10 431.80 L 575.70 431.60 L 579.20 432.00 L 582.60 432.90 L 586.00 434.10 L 592.50 437.70 L 595.50 440.00 L 599.60 443.80 L 603.40 447.90 L 607.00 452.60 L 610.30 457.60 L 613.40 463.00 L 616.10 468.60 L 618.30 474.40 L 620.10 480.30 L 621.30 486.30 L 621.90 492.30 L 621.80 498.20 M 584.80 338.00 L 578.50 341.50 L 571.90 344.60 L 565.10 347.40 L 551.20 352.00 L 544.10 353.80 L 533.30 356.10 L 522.70 357.80 L 511.90 358.90 L 501.10 359.40 L 490.30 359.30 L 479.40 358.70 L 468.60 357.60 L 457.80 356.20 L 441.80 353.40 L 425.90 350.10 L 402.80 344.40 L 403.00 352.80 L 403.80 361.00 L 405.20 369.00 L 407.20 376.90 L 409.80 384.60 L 412.90 392.10 L 416.70 399.50 L 421.00 406.60 L 426.40 414.20 L 432.00 421.40 L 456.00 449.20 L 461.20 456.00 L 465.90 463.10 L 468.60 468.00 L 471.00 473.10 L 473.00 478.30 L 474.50 483.70 L 475.50 489.20 L 475.90 498.70 L 475.70 502.10 L 475.00 505.40 L 473.90 508.50 L 471.30 512.10 L 469.40 513.80 L 466.10 515.90 L 462.60 517.70 L 455.10 520.00 L 447.40 521.40 L 437.90 522.40 L 428.30 522.90 L 418.60 522.70 L 399.40 521.10 L 384.50 518.70 L 374.40 516.60 L 371.80 517.40 L 370.20 518.60 L 365.80 523.50 L 364.10 526.20 L 361.90 530.50 L 360.10 535.10 L 357.80 544.60 L 356.90 550.60 L 356.00 563.20 L 356.10 572.70 L 356.90 582.30 L 357.80 588.60 L 360.20 600.60 L 361.70 604.70 L 363.60 608.50 L 366.20 611.90 L 369.10 615.10 L 372.50 618.00 L 376.10 620.60 L 382.00 624.00 L 388.20 626.90 L 394.40 629.20 L 400.20 631.00 L 407.10 632.60 L 414.10 633.80 L 421.00 634.60 L 428.00 635.00 L 435.00 634.90 L 443.80 634.40 L 452.50 633.30 L 461.20 631.60 L 469.80 629.40 L 478.30 626.80 L 486.50 623.60 L 494.60 620.00 L 502.60 616.00 L 510.30 611.50 L 517.60 606.70 L 524.70 601.50 L 533.70 594.00 L 537.60 601.70 L 545.10 614.30 L 550.30 620.90 L 552.10 622.50 L 553.90 623.10 L 555.70 623.10 L 574.60 619.50 L 589.50 616.10 L 609.10 610.50 L 625.90 604.20 L 639.70 597.50 L 646.30 593.70 L 652.70 589.50 L 658.70 584.90 L 664.40 580.00 L 669.80 574.70 L 674.80 569.10 L 679.40 563.10 L 683.60 556.60 L 687.30 549.60 L 690.50 542.30 L 693.20 534.80 L 695.40 527.20 L 697.20 519.40 L 698.60 511.50 L 700.50 494.50 L 700.90 485.40 L 700.90 476.30 L 700.30 467.20 L 699.60 461.20 L 696.90 449.20 L 694.30 441.20 L 691.10 433.50 L 687.40 426.10 L 683.20 418.90 L 678.60 411.90 L 673.50 405.20 L 662.50 392.50 L 650.30 380.90 L 637.50 370.20 L 620.80 358.20 L 612.10 352.50 L 603.20 347.30 L 594.10 342.40 L 584.80 338.00" fill="#ff5678" fill-rule="evenodd" id="Accent" node-id="3" stroke="none" target-height="297" target-width="344.90002" target-x="356" target-y="338"></path><path d="M 862.40 53.30 L 865.70 52.90 L 868.70 53.10 L 870.10 53.60 L 871.30 54.50 L 872.10 55.60 L 872.30 56.60 L 872.10 60.70 L 873.20 63.00 L 873.50 65.40 L 870.80 69.80 L 870.60 70.90 L 870.90 72.50 L 868.50 69.80 L 865.40 75.50 L 863.70 72.10 L 859.70 77.50 L 871.40 76.50 L 881.50 76.20 L 886.50 76.50 L 891.40 77.20 L 894.70 78.10 L 896.20 78.80 L 897.50 79.80 L 898.50 81.00 L 899.10 82.70 L 899.30 84.60 L 898.80 88.90 L 898.10 91.00 L 896.20 94.50 L 889.20 100.00 L 888.50 101.10 L 888.30 102.00 L 888.60 103.00 L 890.20 104.20 L 892.00 104.60 L 897.20 104.90 L 900.70 105.60 L 903.90 106.70 L 915.60 111.80 L 918.30 113.40 L 921.40 116.30 L 922.60 118.30 L 923.30 120.30 L 923.60 122.20 L 923.40 124.00 L 922.10 127.60 L 919.00 131.50 L 916.70 133.20 L 913.80 134.70 L 907.70 136.80 L 885.10 141.90 L 879.90 142.80 L 874.70 143.30 L 859.40 143.90 L 851.00 145.30 L 857.60 167.40 L 858.10 168.30 L 859.50 169.20 L 863.30 168.00 L 864.90 168.10 L 865.40 168.70 L 865.60 170.20 L 865.40 171.30 L 863.70 174.70 L 863.50 175.90 L 864.10 190.70 L 863.90 194.10 L 862.90 199.20 L 862.80 204.80 L 861.60 207.30 L 861.40 208.50 L 862.00 213.30 L 860.20 223.70 L 859.40 231.80 L 858.80 234.20 L 856.60 237.10 L 856.20 243.60 L 854.70 248.80 L 852.00 253.00 L 851.00 255.80 L 850.50 258.80 L 849.00 261.20 L 847.00 266.50 L 846.20 268.10 L 844.10 270.10 L 844.10 271.70 L 842.70 273.20 L 839.80 279.90 L 838.50 282.10 L 833.50 286.50 L 832.90 287.50 L 833.10 289.60 L 831.90 291.60 L 829.40 294.60 L 825.00 298.40 L 822.50 302.60 L 820.40 304.40 L 817.50 304.60 L 817.60 306.10 L 817.10 307.50 L 816.20 308.70 L 809.80 313.70 L 805.40 318.80 L 796.10 324.30 L 790.50 326.90 L 788.10 328.40 L 786.40 328.80 L 781.80 332.30 L 779.90 333.20 L 771.80 335.80 L 767.80 336.60 L 766.00 338.00 L 764.90 337.30 L 763.30 339.30 L 762.20 339.90 L 761.60 339.80 L 759.30 337.80 L 758.70 337.80 L 758.10 338.40 L 758.80 339.50 L 758.20 341.00 L 756.90 341.70 L 755.00 342.20 L 749.10 343.30 L 747.20 343.30 L 744.70 342.50 L 743.50 340.70 L 741.30 344.30 L 740.70 343.60 L 740.60 342.80 L 740.70 341.10 L 738.80 342.70 L 737.80 343.20 L 736.70 343.30 L 735.60 342.80 L 732.70 340.80 L 732.40 343.50 L 731.40 343.10 L 731.00 342.50 L 731.00 340.60 L 729.40 341.50 L 728.60 343.10 L 727.50 342.30 L 726.70 342.30 L 726.10 342.70 L 725.80 343.40 L 725.90 344.10 L 726.70 344.70 L 725.80 344.90 L 725.10 344.80 L 722.50 343.00 L 721.00 342.70 L 714.90 343.40 L 704.90 343.00 L 698.70 341.60 L 692.90 341.20 L 686.50 339.00 L 680.80 338.60 L 675.90 337.50 L 672.50 336.00 L 668.90 336.50 L 667.50 336.40 L 661.30 333.80 L 655.90 331.00 L 651.30 330.10 L 651.00 329.70 L 651.20 329.10 L 652.30 327.40 L 649.30 327.50 L 644.90 326.50 L 643.60 326.50 L 642.50 326.90 L 641.40 328.10 L 637.40 324.40 L 635.50 323.10 L 632.20 322.10 L 629.70 322.90 L 629.30 321.60 L 627.80 320.20 L 620.90 318.50 L 616.40 315.40 L 612.30 313.20 L 610.90 311.70 L 609.10 309.00 L 607.60 308.40 L 606.00 309.00 L 604.90 309.00 L 603.80 307.70 L 599.50 305.00 L 590.00 300.10 L 581.60 295.20 L 578.80 292.70 L 576.40 289.80 L 575.60 289.20 L 574.50 289.00 L 573.80 289.10 L 573.40 289.60 L 573.20 292.20 L 573.80 295.20 L 580.20 317.70 L 582.80 323.80 L 587.10 330.40 L 589.60 333.60 L 592.40 335.90 L 593.90 336.50 L 599.00 337.60 L 607.00 340.40 L 629.20 351.20 L 632.10 353.30 L 640.60 361.80 L 643.40 364.10 L 652.50 370.20 L 657.70 374.50 L 662.40 379.40 L 668.60 386.80 L 674.50 394.60 L 680.10 402.70 L 685.30 411.20 L 690.10 419.70 L 694.40 428.40 L 697.20 434.80 L 699.40 441.20 L 702.50 454.20 L 704.20 467.50 L 705.50 487.90 L 705.60 495.80 L 705.30 503.70 L 704.70 511.50 L 702.60 524.30 L 701.40 529.10 L 695.30 547.80 L 693.70 555.80 L 693.00 557.60 L 691.80 559.50 L 683.80 570.40 L 677.00 577.50 L 673.20 580.80 L 667.30 585.40 L 661.20 589.50 L 652.50 594.70 L 634.60 604.00 L 625.40 608.10 L 606.60 615.40 L 581.70 623.90 L 569.70 626.90 L 550.80 629.30 L 549.20 629.20 L 548.20 628.90 L 547.60 628.30 L 542.50 619.60 L 541.60 618.40 L 541.20 618.30 L 541.40 623.10 L 541.10 623.80 L 540.10 624.90 L 535.40 627.40 L 528.00 630.30 L 525.70 631.80 L 525.20 632.80 L 526.20 637.50 L 527.00 639.40 L 527.90 640.00 L 530.20 640.10 L 538.70 637.50 L 547.70 636.00 L 555.00 636.10 L 560.40 636.90 L 565.90 638.40 L 576.40 642.40 L 584.60 650.40 L 586.10 652.30 L 587.80 655.60 L 587.50 657.20 L 586.70 657.60 L 586.50 658.40 L 589.50 660.00 L 590.60 661.80 L 592.40 672.00 L 592.80 674.90 L 592.50 677.80 L 593.70 678.00 L 593.90 678.50 L 593.30 680.10 L 590.90 683.50 L 590.70 684.30 L 590.90 685.10 L 591.80 686.60 L 590.60 687.60 L 589.80 689.00 L 587.70 695.50 L 585.90 698.00 L 583.70 699.90 L 578.40 702.60 L 571.60 704.90 L 564.60 706.70 L 532.70 713.40 L 523.80 714.70 L 517.90 714.10 L 510.00 714.80 L 494.90 711.80 L 490.90 710.40 L 485.00 707.80 L 474.20 701.70 L 461.20 693.40 L 459.40 691.50 L 457.10 688.10 L 453.10 680.80 L 450.50 672.90 L 448.90 661.00 L 448.90 654.80 L 449.30 647.60 L 449.10 644.00 L 448.20 640.50 L 445.80 641.90 L 444.60 642.20 L 443.10 641.50 L 442.10 640.30 L 439.30 645.60 L 438.80 650.90 L 439.00 663.50 L 439.50 670.20 L 440.50 676.60 L 441.60 680.80 L 443.10 685.00 L 445.10 689.00 L 448.50 694.70 L 452.50 700.10 L 456.90 705.30 L 461.50 710.10 L 465.90 713.50 L 472.30 716.40 L 480.70 718.50 L 491.10 719.80 L 497.40 720.10 L 522.40 720.10 L 535.70 719.10 L 542.30 718.00 L 557.70 714.70 L 565.90 712.60 L 574.00 710.20 L 581.90 707.20 L 591.90 702.20 L 596.70 699.10 L 593.80 696.00 L 591.90 692.40 L 591.80 691.20 L 592.00 690.20 L 592.70 689.20 L 594.30 688.30 L 596.20 688.90 L 597.40 689.90 L 599.20 692.50 L 600.40 694.80 L 601.10 697.20 L 601.30 699.30 L 601.00 701.10 L 599.40 704.40 L 595.90 707.80 L 593.20 709.40 L 587.60 712.10 L 571.50 718.80 L 554.90 724.50 L 546.20 726.90 L 537.60 728.60 L 528.90 729.80 L 499.30 731.90 L 487.60 731.60 L 481.80 730.80 L 476.20 729.50 L 470.60 727.60 L 465.20 725.30 L 460.00 722.40 L 455.10 719.10 L 450.70 715.40 L 447.20 711.70 L 444.10 707.30 L 441.30 702.70 L 434.40 688.30 L 432.20 682.60 L 430.40 676.80 L 429.20 670.70 L 428.50 664.60 L 428.30 658.40 L 428.50 652.30 L 429.20 647.30 L 429.10 645.40 L 427.80 644.90 L 421.30 645.20 L 409.10 644.10 L 405.10 642.70 L 400.30 641.70 L 389.30 637.40 L 385.30 634.70 L 385.30 635.90 L 383.50 635.70 L 379.20 633.20 L 373.70 631.10 L 371.90 630.00 L 368.30 625.60 L 361.50 618.30 L 358.40 613.70 L 354.10 605.60 L 351.80 598.50 L 351.00 594.10 L 349.70 580.50 L 348.30 571.60 L 346.10 575.80 L 345.70 577.30 L 345.40 581.00 L 343.30 582.90 L 343.50 584.70 L 341.90 585.00 L 342.20 588.20 L 341.90 589.60 L 340.80 591.40 L 339.60 595.40 L 338.50 596.90 L 331.40 602.30 L 329.50 603.20 L 327.50 603.60 L 325.20 603.40 L 322.10 602.60 L 321.20 602.70 L 320.50 603.20 L 319.90 604.40 L 319.90 605.70 L 322.70 612.70 L 322.80 615.30 L 322.30 616.10 L 321.50 616.60 L 320.30 616.50 L 318.30 615.70 L 313.60 611.80 L 312.60 611.30 L 311.50 611.20 L 310.40 611.70 L 308.80 613.20 L 307.90 614.50 L 307.30 616.90 L 307.60 618.70 L 309.90 625.20 L 309.40 627.70 L 308.20 629.20 L 306.80 628.90 L 304.90 626.50 L 301.70 619.40 L 285.30 629.30 L 271.60 636.30 L 265.30 637.60 L 262.90 640.40 L 261.40 641.40 L 243.30 646.90 L 239.90 647.50 L 236.60 647.70 L 230.00 647.00 L 223.70 645.40 L 214.80 641.00 L 215.40 642.60 L 215.40 644.40 L 214.60 645.30 L 213.20 645.80 L 207.40 646.00 L 203.80 644.90 L 198.70 641.70 L 195.20 638.80 L 192.30 635.70 L 189.90 632.50 L 188.00 629.00 L 186.50 625.00 L 185.30 620.60 L 184.50 615.50 L 184.30 610.80 L 184.80 606.40 L 185.70 602.00 L 187.20 597.90 L 189.10 593.90 L 191.50 590.20 L 194.20 586.60 L 197.30 583.30 L 204.30 577.10 L 214.70 569.80 L 223.20 564.40 L 234.10 555.00 L 250.00 542.90 L 256.70 537.00 L 263.10 530.90 L 274.90 518.20 L 280.40 511.30 L 290.70 497.30 L 293.10 494.50 L 295.90 492.00 L 297.90 490.80 L 300.00 489.90 L 302.30 489.50 L 305.30 489.60 L 308.10 490.20 L 311.50 491.90 L 317.90 498.20 L 321.00 500.10 L 324.30 501.10 L 334.50 503.20 L 340.50 505.00 L 351.70 509.30 L 359.80 513.50 L 361.40 513.90 L 363.30 513.70 L 364.30 513.00 L 365.40 511.70 L 367.40 507.70 L 368.40 506.60 L 370.10 505.70 L 371.90 505.30 L 374.30 505.90 L 377.70 508.20 L 385.60 511.40 L 394.00 513.80 L 398.90 514.10 L 402.00 515.60 L 404.80 516.20 L 420.90 518.50 L 425.30 518.80 L 433.90 518.60 L 438.10 518.00 L 442.30 516.80 L 446.50 515.10 L 454.50 511.10 L 457.50 509.30 L 462.90 504.80 L 465.00 502.30 L 466.60 499.10 L 467.80 495.70 L 468.60 492.10 L 468.90 488.40 L 468.40 481.20 L 467.60 477.30 L 466.30 473.50 L 464.60 469.80 L 461.50 464.50 L 458.00 459.60 L 455.80 457.20 L 448.70 451.20 L 443.70 448.00 L 442.30 446.70 L 441.80 447.00 L 441.00 447.00 L 437.50 444.80 L 428.80 436.00 L 416.60 421.60 L 413.00 417.00 L 409.80 411.90 L 406.90 406.30 L 404.50 400.60 L 402.40 394.60 L 399.40 382.40 L 397.70 370.60 L 397.50 355.90 L 397.00 352.60 L 395.30 350.60 L 392.30 348.80 L 386.60 346.40 L 385.40 345.50 L 384.30 344.30 L 383.10 341.90 L 382.40 339.10 L 381.90 333.60 L 382.80 317.90 L 382.90 303.20 L 383.70 296.30 L 385.00 289.40 L 392.00 260.60 L 395.90 246.60 L 398.30 240.10 L 402.90 229.30 L 404.10 227.30 L 405.80 225.70 L 405.20 225.20 L 402.60 224.90 L 397.60 225.70 L 375.20 231.90 L 368.30 234.10 L 361.60 236.60 L 343.50 245.20 L 340.70 247.60 L 340.10 249.00 L 339.90 252.10 L 342.20 266.00 L 344.00 280.90 L 345.80 287.40 L 347.30 290.60 L 353.70 300.80 L 363.30 314.80 L 365.80 319.00 L 371.10 329.90 L 382.70 356.70 L 383.50 360.30 L 383.00 363.50 L 382.00 365.00 L 380.50 366.50 L 377.60 368.20 L 365.30 373.10 L 358.30 377.70 L 349.50 382.40 L 342.60 385.40 L 321.60 393.80 L 294.00 406.60 L 281.90 410.70 L 251.80 425.80 L 248.30 428.30 L 245.80 429.40 L 244.50 429.40 L 243.20 428.70 L 241.70 427.40 L 232.40 415.60 L 231.60 414.10 L 231.10 412.40 L 230.90 409.40 L 230.20 407.90 L 229.20 407.30 L 226.00 406.80 L 217.80 401.50 L 215.50 399.60 L 213.50 397.30 L 212.00 394.80 L 211.00 391.90 L 210.20 388.20 L 209.80 380.00 L 210.90 369.80 L 212.00 363.70 L 201.50 373.90 L 198.60 378.50 L 193.60 382.00 L 192.90 383.00 L 192.90 384.30 L 192.70 384.70 L 190.30 384.40 L 189.20 385.00 L 184.20 391.30 L 180.70 393.80 L 175.10 399.40 L 162.00 409.40 L 150.30 416.50 L 149.40 416.80 L 148.80 415.80 L 145.60 418.40 L 144.60 418.80 L 140.80 419.20 L 138.20 418.70 L 135.40 415.60 L 134.60 415.70 L 133.90 414.10 L 133.50 409.90 L 134.40 404.00 L 135.50 399.90 L 137.10 396.30 L 139.10 393.00 L 145.80 383.10 L 146.40 380.80 L 146.10 379.90 L 145.50 379.30 L 144.60 379.30 L 143.40 379.80 L 143.70 380.00 L 143.30 381.50 L 142.70 381.90 L 137.90 382.80 L 134.50 385.70 L 123.60 391.30 L 119.80 392.80 L 113.40 394.70 L 111.20 394.80 L 110.70 394.00 L 109.70 395.00 L 108.90 396.70 L 107.70 397.50 L 104.50 397.40 L 102.80 396.70 L 101.90 396.00 L 101.10 394.30 L 101.50 391.10 L 103.00 388.00 L 108.60 379.60 L 112.60 374.30 L 117.00 369.40 L 123.90 362.20 L 153.40 333.90 L 158.50 328.50 L 166.30 319.00 L 171.20 310.80 L 176.10 300.10 L 176.70 297.10 L 176.40 295.90 L 175.80 295.20 L 169.50 291.70 L 166.10 289.20 L 165.00 287.10 L 164.90 286.00 L 165.60 283.90 L 168.60 279.70 L 174.10 274.60 L 177.20 271.10 L 185.80 260.20 L 192.40 253.00 L 206.60 239.30 L 221.80 226.40 L 229.50 220.30 L 236.90 214.90 L 244.60 210.00 L 260.40 201.00 L 281.80 189.60 L 290.00 185.60 L 298.40 182.00 L 311.70 177.10 L 315.70 175.10 L 316.80 174.20 L 317.90 172.20 L 318.00 170.50 L 316.00 158.50 L 315.40 152.30 L 315.40 139.80 L 316.00 133.60 L 317.00 127.60 L 318.40 121.60 L 320.30 115.70 L 322.60 110.10 L 325.40 104.60 L 328.70 99.30 L 332.60 94.20 L 338.40 87.90 L 341.50 85.20 L 344.80 82.70 L 348.40 80.50 L 352.00 79.00 L 354.50 78.30 L 357.10 78.00 L 361.50 78.40 L 364.30 79.90 L 365.90 81.60 L 367.00 83.70 L 367.80 86.10 L 368.50 91.20 L 368.30 101.00 L 365.80 130.70 L 365.50 137.50 L 365.60 141.00 L 366.60 146.40 L 368.30 149.80 L 369.50 151.10 L 371.00 152.10 L 372.90 152.70 L 374.40 152.70 L 377.10 151.90 L 380.70 149.00 L 396.00 131.50 L 401.70 126.10 L 405.10 123.40 L 408.70 121.00 L 413.80 118.50 L 418.80 117.50 L 421.30 117.70 L 423.80 118.30 L 426.10 119.50 L 428.10 121.10 L 430.00 123.10 L 432.50 126.50 L 434.40 130.30 L 435.90 134.40 L 437.00 138.60 L 437.60 142.70 L 437.80 146.40 L 436.60 154.40 L 436.80 155.80 L 437.40 157.00 L 438.50 158.00 L 439.90 158.60 L 444.70 159.40 L 453.90 161.80 L 451.90 153.30 L 450.60 145.60 L 449.70 137.90 L 449.60 130.30 L 449.90 125.10 L 450.60 120.10 L 451.70 115.20 L 453.20 110.40 L 455.30 105.80 L 458.00 101.30 L 460.60 97.90 L 463.40 95.00 L 466.50 92.50 L 469.80 90.40 L 477.40 86.90 L 485.90 84.30 L 495.20 82.90 L 499.80 82.80 L 504.00 83.30 L 506.50 84.30 L 508.40 83.90 L 511.30 84.00 L 514.20 84.80 L 516.90 86.10 L 521.90 89.60 L 526.50 94.60 L 528.40 97.80 L 530.30 102.30 L 532.50 104.10 L 533.40 105.40 L 535.70 110.20 L 540.10 117.90 L 545.00 127.10 L 546.10 131.20 L 547.20 131.90 L 548.70 132.20 L 555.20 131.70 L 557.20 132.10 L 560.60 133.70 L 562.80 135.60 L 564.80 137.90 L 567.30 141.40 L 569.30 145.00 L 570.90 148.70 L 573.00 156.60 L 574.60 169.20 L 574.20 175.20 L 573.20 178.40 L 568.70 187.10 L 581.10 187.60 L 593.30 188.70 L 601.30 190.60 L 605.30 192.10 L 613.10 195.50 L 620.70 199.60 L 625.50 202.60 L 630.00 206.00 L 634.30 209.80 L 643.60 219.00 L 647.10 221.70 L 657.80 228.90 L 665.60 234.90 L 675.50 241.00 L 685.90 246.10 L 699.10 250.90 L 707.50 253.20 L 715.90 255.00 L 730.50 257.10 L 740.90 257.40 L 746.10 256.90 L 751.10 256.00 L 755.80 254.60 L 758.10 253.40 L 759.90 251.80 L 762.90 247.90 L 765.20 243.40 L 773.90 223.60 L 776.30 216.10 L 776.90 212.30 L 776.90 209.60 L 776.50 207.00 L 773.40 196.70 L 772.50 192.80 L 769.80 176.20 L 770.40 173.80 L 773.60 169.60 L 774.10 167.70 L 773.60 166.40 L 771.10 164.10 L 759.20 157.70 L 726.10 147.00 L 718.90 144.40 L 714.60 142.10 L 713.50 141.10 L 712.00 138.60 L 711.70 131.90 L 709.70 128.40 L 710.10 126.60 L 711.90 124.40 L 716.10 121.90 L 719.90 120.70 L 726.70 120.30 L 740.80 120.10 L 746.80 120.60 L 752.70 121.70 L 760.50 124.30 L 762.60 124.60 L 764.00 124.40 L 765.00 123.50 L 765.90 121.70 L 768.70 114.00 L 772.90 107.90 L 787.90 90.20 L 795.20 82.90 L 799.30 79.60 L 805.50 75.40 L 812.00 71.70 L 825.60 65.40 L 841.70 59.00 L 853.50 55.50 L 857.80 53.60 L 859.30 53.30 L 861.10 54.00 L 862.40 53.30 Z M 513.60 618.70 L 511.90 619.30 L 504.30 624.20 L 494.10 629.10 L 487.20 631.80 L 482.40 634.20 L 474.50 636.70 L 461.00 639.10 L 459.70 639.80 L 459.10 640.50 L 458.70 643.30 L 459.50 650.70 L 458.80 656.60 L 458.90 657.00 L 459.20 657.00 L 460.20 655.60 L 462.70 666.20 L 464.10 670.50 L 465.90 674.50 L 467.40 677.00 L 471.00 681.10 L 477.70 685.50 L 481.70 688.80 L 485.90 690.60 L 485.80 693.00 L 486.40 692.40 L 487.30 692.20 L 490.60 693.10 L 500.80 698.70 L 509.10 701.30 L 511.80 701.90 L 515.40 702.10 L 516.40 702.40 L 517.10 703.10 L 517.60 704.40 L 518.10 703.50 L 519.60 702.50 L 525.70 701.70 L 529.70 699.50 L 531.20 699.00 L 535.80 698.80 L 540.00 697.30 L 546.40 696.30 L 561.90 692.50 L 564.30 692.40 L 569.60 693.30 L 574.10 692.10 L 578.00 691.90 L 579.50 691.00 L 580.00 689.90 L 580.10 688.50 L 579.10 683.80 L 578.90 670.10 L 577.60 663.50 L 576.40 660.40 L 574.60 657.70 L 571.00 654.30 L 568.90 653.00 L 566.60 652.20 L 563.20 651.70 L 562.40 650.90 L 561.30 650.70 L 559.40 651.00 L 557.50 650.30 L 554.20 649.90 L 545.80 650.00 L 535.40 651.10 L 533.50 651.60 L 528.80 653.80 L 527.70 653.70 L 526.20 652.90 L 525.40 655.00 L 525.00 655.40 L 523.90 655.70 L 523.10 655.00 L 522.30 654.90 L 520.60 656.90 L 519.60 657.20 L 519.10 657.30 L 516.80 656.00 L 516.20 657.40 L 515.10 658.60 L 514.10 659.10 L 511.20 659.00 L 509.90 659.30 L 508.50 662.10 L 506.30 663.20 L 503.90 663.30 L 502.10 662.20 L 501.80 661.40 L 501.80 659.90 L 502.30 658.00 L 503.10 656.20 L 505.30 653.00 L 507.80 651.20 L 513.50 648.10 L 515.10 646.90 L 516.30 645.40 L 516.70 644.40 L 516.70 643.40 L 516.00 641.50 L 513.80 637.90 L 512.20 636.60 L 510.90 636.40 L 509.50 636.70 L 504.70 638.70 L 502.90 639.10 L 500.00 638.80 L 499.50 637.60 L 500.20 635.70 L 502.70 632.70 L 505.30 630.60 L 511.40 626.60 L 513.00 624.70 L 514.20 622.50 L 514.70 620.20 L 514.40 619.30 L 513.60 618.70 Z M 307.10 499.60 L 304.50 500.20 L 302.30 501.20 L 300.50 502.50 L 298.10 505.20 L 292.10 514.70 L 287.20 521.70 L 281.90 528.40 L 276.20 534.80 L 270.10 540.70 L 257.30 551.60 L 237.40 567.10 L 231.50 571.40 L 213.00 583.60 L 209.10 586.60 L 202.00 593.40 L 199.10 597.10 L 194.80 604.60 L 192.50 611.10 L 191.80 614.60 L 191.50 617.90 L 191.70 621.20 L 192.30 624.50 L 193.50 627.60 L 195.30 630.50 L 198.60 634.10 L 203.80 637.30 L 207.30 638.80 L 214.30 640.70 L 211.20 638.60 L 208.70 636.10 L 206.70 633.30 L 205.20 630.20 L 204.10 627.00 L 203.50 623.50 L 203.50 616.30 L 204.80 609.20 L 207.30 602.70 L 209.30 599.30 L 211.70 596.40 L 214.40 593.80 L 263.60 555.50 L 273.30 547.40 L 288.00 534.00 L 291.80 529.90 L 295.30 525.50 L 298.30 520.70 L 299.90 517.30 L 303.50 506.20 L 305.00 502.80 L 307.10 499.60 Z M 324.20 511.90 L 317.00 510.80 L 315.20 510.80 L 313.80 511.20 L 312.80 512.00 L 312.00 513.20 L 307.20 523.90 L 304.20 529.00 L 300.00 535.00 L 295.50 540.70 L 290.50 546.00 L 285.30 551.10 L 279.70 555.70 L 273.80 560.00 L 264.80 565.20 L 263.40 566.50 L 261.60 570.20 L 257.80 571.40 L 255.20 573.10 L 252.50 575.50 L 251.00 578.00 L 248.60 577.20 L 248.00 579.00 L 245.00 583.10 L 243.50 584.10 L 240.10 585.20 L 237.70 588.10 L 233.00 590.50 L 228.30 596.00 L 221.60 602.20 L 219.30 604.90 L 217.20 608.00 L 215.50 611.40 L 214.50 614.90 L 214.20 619.70 L 214.60 622.20 L 215.40 624.30 L 216.60 626.00 L 218.20 627.40 L 224.00 631.10 L 226.60 633.90 L 227.80 634.50 L 227.80 633.60 L 228.90 633.20 L 231.40 633.70 L 243.00 634.20 L 243.90 633.80 L 244.80 632.90 L 248.10 631.70 L 258.40 629.10 L 261.80 627.60 L 285.00 615.50 L 294.20 609.60 L 295.50 608.40 L 296.20 607.20 L 296.40 606.10 L 296.30 604.20 L 291.00 591.40 L 290.30 588.00 L 290.40 587.00 L 291.30 585.90 L 292.60 585.90 L 293.40 586.50 L 295.50 589.20 L 300.80 601.40 L 302.60 602.80 L 304.50 602.70 L 305.30 602.10 L 306.00 600.80 L 306.20 599.60 L 306.00 598.30 L 302.90 590.70 L 301.00 581.50 L 301.30 577.60 L 301.80 576.70 L 302.50 576.10 L 303.60 575.80 L 305.60 576.40 L 307.90 579.10 L 311.30 586.70 L 314.10 594.90 L 319.70 591.60 L 322.30 589.50 L 327.70 587.60 L 330.00 585.50 L 331.60 583.10 L 335.50 575.20 L 340.40 568.40 L 341.80 566.10 L 341.90 565.30 L 340.80 563.10 L 339.20 561.40 L 332.40 556.20 L 329.50 553.40 L 328.60 550.90 L 328.10 548.00 L 328.50 542.30 L 329.90 534.70 L 330.90 531.10 L 333.20 525.30 L 334.70 522.60 L 338.50 517.70 L 339.40 515.80 L 338.70 514.60 L 335.80 513.10 L 333.50 512.60 L 324.20 511.90 Z M 424.40 625.90 L 423.40 625.90 L 420.00 626.90 L 417.70 627.20 L 411.10 626.70 L 412.90 627.70 L 417.10 628.30 L 422.50 627.80 L 425.50 627.10 L 425.80 626.80 L 425.60 626.50 L 424.40 625.90 Z M 586.00 344.40 L 584.70 344.60 L 582.70 346.10 L 581.10 346.60 L 578.50 345.20 L 577.10 345.10 L 570.30 349.60 L 564.80 352.30 L 563.20 353.40 L 561.80 355.10 L 560.80 356.90 L 559.10 363.10 L 557.10 366.80 L 556.80 368.10 L 557.90 369.80 L 559.10 370.90 L 563.60 373.90 L 566.20 376.40 L 568.30 379.40 L 568.80 381.00 L 568.70 383.60 L 567.30 385.60 L 566.00 386.30 L 564.50 386.40 L 561.20 385.50 L 552.90 380.70 L 550.60 379.60 L 549.40 379.30 L 548.20 379.40 L 546.90 380.10 L 543.60 383.50 L 540.20 385.80 L 538.50 386.30 L 537.00 386.20 L 536.10 385.80 L 534.50 383.60 L 534.00 381.80 L 534.00 380.20 L 534.30 378.60 L 535.30 376.40 L 536.90 374.30 L 540.30 370.60 L 535.10 363.80 L 533.40 362.70 L 521.50 364.30 L 511.60 364.70 L 505.60 364.40 L 504.20 364.70 L 502.30 366.00 L 499.80 370.70 L 499.40 372.50 L 499.70 374.10 L 501.50 377.20 L 507.20 382.50 L 509.20 385.60 L 510.50 389.10 L 510.50 390.80 L 510.00 392.00 L 509.30 392.50 L 506.60 392.70 L 504.00 391.90 L 501.70 390.60 L 495.30 385.60 L 493.10 384.40 L 491.80 384.20 L 489.70 384.70 L 484.00 388.90 L 481.90 389.10 L 480.70 388.50 L 479.60 387.30 L 478.90 385.70 L 478.70 383.90 L 479.10 380.10 L 481.00 375.30 L 480.80 373.40 L 479.40 371.40 L 475.10 367.60 L 471.80 365.50 L 467.20 364.50 L 458.40 364.10 L 449.10 362.90 L 446.90 363.00 L 443.70 363.90 L 441.90 365.70 L 440.00 369.80 L 439.40 371.80 L 439.50 373.40 L 440.90 376.00 L 444.70 379.70 L 447.60 383.10 L 450.00 387.10 L 450.80 389.20 L 451.00 391.20 L 450.30 393.90 L 449.60 394.50 L 448.40 395.00 L 446.70 395.00 L 445.00 394.50 L 440.50 392.20 L 437.80 390.50 L 433.10 386.30 L 431.00 385.80 L 429.50 386.50 L 426.40 389.50 L 422.30 392.20 L 421.20 393.30 L 420.50 394.40 L 420.80 397.00 L 423.30 402.20 L 437.30 421.00 L 440.70 424.40 L 445.90 428.60 L 456.40 436.30 L 464.70 443.20 L 470.50 450.10 L 474.90 457.80 L 477.60 461.10 L 479.30 462.20 L 485.10 463.40 L 491.50 467.40 L 494.70 468.70 L 496.00 468.50 L 498.20 467.10 L 504.40 460.20 L 506.00 459.40 L 507.40 459.20 L 509.40 460.10 L 510.00 462.30 L 509.80 464.20 L 508.50 467.80 L 505.40 473.60 L 504.80 475.20 L 504.80 476.70 L 505.20 478.20 L 506.10 479.70 L 513.80 487.70 L 515.80 491.30 L 516.10 492.80 L 515.60 494.80 L 514.10 496.00 L 511.20 496.20 L 509.30 495.60 L 506.00 493.90 L 498.20 487.60 L 496.10 487.20 L 494.20 488.00 L 490.60 491.50 L 489.40 492.30 L 487.50 492.60 L 486.30 492.20 L 484.90 491.10 L 484.20 489.80 L 483.80 488.20 L 484.20 484.80 L 486.60 478.80 L 486.70 477.90 L 485.70 476.30 L 483.80 474.70 L 482.40 474.50 L 481.90 475.00 L 481.80 476.60 L 482.90 480.50 L 483.20 484.50 L 483.00 494.00 L 482.50 498.10 L 481.60 502.10 L 480.20 506.50 L 477.50 512.30 L 477.00 513.90 L 477.10 515.00 L 478.50 516.60 L 480.60 517.30 L 495.60 519.00 L 496.70 519.40 L 497.70 520.40 L 498.10 521.70 L 498.20 523.00 L 497.80 524.30 L 496.60 526.00 L 495.00 527.60 L 491.60 529.40 L 490.10 529.50 L 481.60 528.90 L 479.80 529.20 L 477.80 530.10 L 477.10 531.00 L 476.50 532.80 L 476.50 535.00 L 477.60 541.80 L 477.40 543.80 L 476.80 545.60 L 476.10 546.40 L 475.50 546.70 L 474.00 546.20 L 473.10 545.40 L 470.90 542.10 L 469.70 538.90 L 469.20 532.90 L 468.30 529.40 L 467.30 528.10 L 465.10 527.10 L 463.30 526.90 L 460.80 527.10 L 455.50 528.90 L 448.00 532.40 L 442.80 534.10 L 437.60 535.40 L 432.30 536.20 L 426.90 536.70 L 417.70 536.80 L 407.80 535.20 L 405.50 535.30 L 404.50 536.40 L 403.80 543.50 L 403.10 545.00 L 401.90 546.40 L 400.70 546.90 L 399.60 546.90 L 398.50 546.20 L 397.70 545.10 L 396.80 541.90 L 396.90 536.40 L 396.60 534.70 L 396.00 533.40 L 395.00 532.50 L 389.00 530.50 L 377.60 524.60 L 375.40 524.20 L 374.40 524.90 L 373.00 527.80 L 367.80 549.90 L 366.20 560.60 L 365.50 567.70 L 364.20 571.90 L 365.70 578.00 L 367.00 590.50 L 368.10 595.80 L 370.30 602.80 L 372.80 609.20 L 374.50 612.20 L 376.70 614.70 L 379.00 616.40 L 390.60 621.80 L 393.90 622.40 L 395.30 622.30 L 400.90 619.90 L 404.90 619.50 L 406.00 618.90 L 406.80 617.70 L 407.10 615.80 L 407.10 609.20 L 407.40 607.40 L 408.50 605.50 L 409.50 605.10 L 410.40 605.00 L 411.70 605.80 L 412.30 607.10 L 412.80 608.70 L 413.30 614.70 L 413.80 617.00 L 414.60 618.40 L 415.60 619.40 L 416.90 620.10 L 423.90 621.60 L 427.20 623.00 L 429.00 624.80 L 429.90 627.40 L 431.70 627.90 L 436.80 627.00 L 439.50 627.30 L 441.50 627.00 L 446.60 624.80 L 455.90 623.20 L 475.10 617.80 L 477.30 616.50 L 478.50 615.40 L 479.40 613.90 L 480.00 612.00 L 481.30 605.10 L 482.00 603.70 L 482.80 602.80 L 484.30 602.70 L 485.50 603.30 L 486.50 604.60 L 486.90 606.20 L 487.20 611.00 L 487.70 611.90 L 489.10 612.20 L 494.60 609.90 L 498.50 607.90 L 512.30 599.30 L 515.00 596.90 L 515.70 595.70 L 515.70 594.60 L 514.30 592.80 L 511.40 590.60 L 506.80 588.20 L 506.00 588.10 L 504.70 588.50 L 499.30 593.00 L 498.00 593.60 L 496.20 593.30 L 495.10 592.50 L 494.30 591.30 L 493.80 589.60 L 493.60 586.00 L 494.40 582.80 L 496.00 579.30 L 496.00 578.40 L 495.60 577.40 L 494.40 576.10 L 490.90 573.60 L 488.80 571.20 L 488.10 569.50 L 487.80 567.80 L 488.40 565.10 L 490.30 563.60 L 493.00 563.20 L 496.30 564.70 L 501.60 568.60 L 503.20 569.30 L 505.60 569.50 L 507.10 568.80 L 508.50 567.60 L 511.70 564.00 L 514.70 561.10 L 517.10 559.90 L 518.20 560.00 L 519.20 561.10 L 519.60 562.40 L 519.30 565.60 L 518.00 569.10 L 514.60 574.80 L 514.00 576.30 L 513.90 578.00 L 515.10 580.10 L 522.00 586.60 L 524.20 587.60 L 525.40 587.40 L 528.40 585.00 L 531.60 581.40 L 537.50 573.50 L 540.20 569.50 L 549.70 553.20 L 552.60 546.00 L 553.20 545.20 L 556.30 542.60 L 557.00 537.30 L 561.10 530.50 L 556.60 531.10 L 547.60 533.20 L 543.20 533.60 L 542.00 534.00 L 541.10 534.70 L 540.40 535.90 L 540.30 537.00 L 540.90 542.90 L 540.80 544.30 L 540.30 545.50 L 539.30 546.50 L 537.70 547.00 L 536.10 545.90 L 534.40 543.20 L 532.20 536.20 L 531.40 534.80 L 530.40 533.60 L 528.90 532.90 L 524.40 531.80 L 523.20 531.10 L 522.20 530.10 L 521.60 528.50 L 521.40 526.70 L 521.80 525.30 L 522.50 524.10 L 524.80 522.40 L 526.40 521.80 L 530.60 521.20 L 532.80 520.10 L 533.80 518.80 L 534.20 517.50 L 535.10 512.00 L 535.60 511.00 L 537.30 509.80 L 538.50 509.90 L 539.30 510.40 L 539.80 511.40 L 540.30 519.50 L 540.80 520.50 L 541.80 521.20 L 543.00 521.60 L 551.60 521.90 L 560.60 521.80 L 562.60 521.60 L 563.50 520.40 L 567.20 499.50 L 566.70 495.60 L 568.50 496.00 L 569.80 495.80 L 570.70 495.30 L 571.20 494.50 L 571.30 493.30 L 570.70 491.30 L 569.70 490.00 L 568.20 488.90 L 561.00 486.10 L 557.30 484.20 L 554.20 483.30 L 552.10 483.80 L 550.90 484.60 L 545.70 489.30 L 544.50 489.90 L 542.80 490.00 L 541.50 489.60 L 540.40 488.80 L 539.60 487.60 L 539.10 484.60 L 539.90 481.60 L 544.20 475.10 L 544.30 474.00 L 543.90 473.00 L 541.30 469.60 L 540.40 466.70 L 540.20 463.30 L 540.50 461.80 L 541.20 460.50 L 542.20 459.50 L 543.20 459.10 L 544.20 459.10 L 545.70 459.70 L 551.60 464.00 L 553.80 464.20 L 556.60 462.50 L 560.60 458.30 L 564.60 455.20 L 564.80 453.20 L 564.40 450.70 L 562.10 442.90 L 558.50 427.90 L 558.00 427.00 L 557.40 426.60 L 556.40 426.40 L 546.90 428.90 L 540.60 429.70 L 537.40 430.60 L 536.30 431.50 L 535.50 432.90 L 535.40 439.10 L 535.10 440.40 L 534.20 442.10 L 533.40 442.90 L 532.50 443.20 L 531.60 443.00 L 530.60 442.30 L 529.40 440.70 L 528.60 438.80 L 527.20 432.90 L 526.50 431.70 L 524.60 430.10 L 519.30 428.10 L 517.80 427.30 L 516.50 425.50 L 516.30 422.40 L 517.10 420.40 L 518.30 419.50 L 525.30 417.90 L 526.80 417.20 L 528.00 415.10 L 530.40 408.10 L 531.20 406.80 L 532.00 406.20 L 533.20 406.60 L 534.60 408.40 L 535.10 412.00 L 535.10 416.20 L 535.30 417.20 L 536.10 417.90 L 538.90 418.60 L 546.00 418.70 L 548.30 418.60 L 550.60 418.00 L 551.40 416.40 L 551.30 415.20 L 549.40 408.60 L 549.40 406.70 L 549.80 404.80 L 550.90 402.10 L 552.60 399.60 L 556.90 394.70 L 560.00 392.50 L 564.50 390.30 L 566.90 389.70 L 568.70 389.70 L 569.70 390.10 L 570.40 390.90 L 570.70 392.20 L 570.60 394.30 L 569.60 398.90 L 568.90 400.80 L 565.90 406.00 L 565.30 408.80 L 566.20 412.60 L 571.10 422.10 L 572.90 424.00 L 574.50 424.70 L 576.60 425.10 L 586.10 426.00 L 588.30 426.60 L 590.20 427.50 L 591.90 428.90 L 591.70 424.60 L 590.70 422.90 L 588.90 422.00 L 584.70 421.60 L 582.90 421.00 L 581.90 420.30 L 581.30 418.40 L 582.10 416.30 L 583.50 414.90 L 585.50 413.90 L 589.30 412.70 L 590.30 411.80 L 590.90 410.40 L 591.20 405.20 L 591.90 400.30 L 593.20 397.00 L 594.10 396.10 L 594.80 396.00 L 595.70 396.20 L 596.80 397.10 L 597.80 398.50 L 598.50 401.70 L 598.50 408.90 L 599.00 410.40 L 600.40 411.90 L 603.50 412.70 L 605.50 412.90 L 617.40 413.20 L 625.40 412.90 L 627.30 413.10 L 629.50 414.50 L 630.10 416.20 L 630.00 417.20 L 628.50 419.40 L 626.90 420.70 L 623.10 422.40 L 619.90 423.00 L 616.50 423.20 L 606.40 423.10 L 603.50 423.40 L 601.60 424.10 L 600.60 424.90 L 600.10 426.00 L 600.20 430.80 L 600.80 434.00 L 601.80 436.60 L 603.30 439.00 L 613.00 451.50 L 615.10 454.90 L 616.70 458.10 L 618.60 460.50 L 620.30 460.70 L 621.50 460.30 L 624.80 456.40 L 626.70 454.80 L 627.70 454.70 L 629.00 455.10 L 630.10 456.20 L 630.60 457.50 L 630.30 460.70 L 629.20 463.90 L 626.60 468.50 L 626.40 469.40 L 626.60 470.70 L 628.20 472.50 L 632.50 475.50 L 636.50 478.80 L 639.70 482.00 L 641.80 485.70 L 642.20 489.00 L 641.80 490.60 L 641.10 491.80 L 639.50 492.70 L 638.20 492.80 L 634.30 491.50 L 626.50 487.50 L 626.30 498.80 L 625.90 502.30 L 625.10 505.80 L 622.40 511.10 L 621.10 514.30 L 620.80 515.60 L 621.00 516.40 L 621.80 517.10 L 623.10 517.30 L 631.50 516.30 L 632.60 516.40 L 633.90 517.10 L 634.60 518.00 L 634.90 518.90 L 634.80 520.60 L 634.00 522.30 L 632.80 523.80 L 631.30 524.80 L 627.40 526.10 L 615.00 526.50 L 611.90 527.10 L 609.90 527.80 L 608.20 528.90 L 606.70 530.50 L 606.00 531.90 L 605.60 533.40 L 605.60 539.90 L 605.20 541.40 L 604.40 542.60 L 602.50 543.90 L 600.90 543.50 L 600.00 542.40 L 597.80 537.00 L 587.30 542.90 L 582.00 544.30 L 575.20 545.00 L 573.20 545.40 L 571.70 546.30 L 570.50 547.60 L 564.80 558.60 L 562.50 565.00 L 564.20 564.50 L 565.70 563.60 L 569.50 559.50 L 572.10 557.60 L 573.90 557.40 L 574.90 557.90 L 575.50 559.10 L 575.70 562.50 L 575.30 564.10 L 572.60 569.40 L 572.00 571.10 L 572.00 572.60 L 572.70 573.80 L 573.80 575.00 L 579.10 578.80 L 581.00 580.60 L 582.40 582.50 L 583.30 585.50 L 583.20 587.20 L 582.80 588.80 L 582.10 589.80 L 581.30 590.40 L 578.90 590.70 L 577.40 590.40 L 574.50 589.20 L 566.30 584.50 L 564.60 583.90 L 563.40 583.90 L 562.40 584.30 L 556.80 589.50 L 554.90 590.50 L 553.60 590.70 L 552.10 590.40 L 548.80 588.50 L 547.90 588.40 L 543.00 594.40 L 542.50 595.60 L 542.40 597.00 L 542.90 598.80 L 547.40 607.40 L 550.40 614.60 L 551.20 615.50 L 552.20 616.00 L 554.10 616.30 L 557.20 616.10 L 560.50 615.70 L 580.80 611.10 L 592.60 606.60 L 603.20 603.70 L 617.10 597.90 L 625.70 595.30 L 629.60 593.60 L 634.60 589.60 L 637.50 588.20 L 631.20 582.90 L 629.40 582.00 L 628.00 581.70 L 626.90 582.10 L 625.90 582.80 L 622.30 587.60 L 619.40 590.00 L 618.30 590.30 L 617.20 590.20 L 616.00 589.50 L 615.00 588.30 L 614.40 586.90 L 614.30 585.30 L 614.80 582.10 L 616.20 579.50 L 619.30 576.10 L 619.90 574.80 L 620.10 573.30 L 619.00 570.50 L 616.20 566.30 L 615.60 564.90 L 615.10 561.30 L 615.90 558.50 L 616.70 557.70 L 617.70 557.20 L 618.80 557.20 L 620.20 557.70 L 621.90 559.00 L 626.10 563.10 L 627.30 563.60 L 629.10 563.00 L 630.40 561.90 L 634.50 556.90 L 635.70 555.90 L 637.70 555.30 L 639.40 556.20 L 640.30 558.30 L 640.20 560.80 L 639.10 564.20 L 636.10 569.00 L 635.80 570.00 L 636.00 571.20 L 637.70 573.30 L 641.00 575.60 L 645.90 580.00 L 648.70 581.50 L 649.40 580.50 L 652.00 579.10 L 656.50 575.10 L 664.50 569.60 L 665.60 568.50 L 668.50 563.00 L 673.50 558.50 L 682.00 547.40 L 684.40 541.70 L 686.50 538.70 L 688.10 537.10 L 690.40 535.70 L 690.30 535.20 L 690.70 534.00 L 690.90 533.80 L 691.00 534.20 L 691.20 532.90 L 691.00 531.40 L 690.10 533.40 L 689.10 531.80 L 688.90 529.90 L 689.90 529.70 L 690.90 528.80 L 693.80 523.50 L 692.20 522.10 L 691.70 521.00 L 691.20 517.30 L 692.40 496.00 L 693.10 490.60 L 693.10 488.70 L 692.60 487.10 L 694.20 485.20 L 694.50 484.10 L 693.30 483.30 L 692.70 482.20 L 690.30 476.80 L 688.80 475.70 L 686.80 475.90 L 685.50 476.70 L 679.00 482.50 L 675.70 484.20 L 674.50 484.30 L 672.30 483.60 L 671.60 482.90 L 670.90 480.70 L 670.90 479.30 L 671.40 477.20 L 672.70 474.80 L 678.80 468.60 L 680.00 466.20 L 680.00 465.00 L 679.50 463.60 L 674.50 458.60 L 673.70 457.20 L 673.40 455.50 L 673.60 453.90 L 674.30 452.40 L 675.30 451.20 L 676.70 450.40 L 678.40 450.20 L 680.20 450.50 L 681.70 451.20 L 687.20 455.40 L 689.30 456.00 L 689.90 455.10 L 689.70 453.80 L 687.20 446.00 L 681.70 432.00 L 677.20 425.20 L 676.20 423.80 L 675.20 423.10 L 671.40 422.00 L 667.00 421.80 L 665.00 422.10 L 663.40 422.80 L 662.40 423.70 L 661.90 425.00 L 662.40 431.90 L 662.00 433.40 L 661.00 434.90 L 660.00 435.50 L 659.00 435.60 L 658.00 435.10 L 656.20 432.80 L 655.40 430.70 L 654.30 425.40 L 653.70 424.10 L 652.70 423.00 L 651.30 422.30 L 645.90 421.70 L 643.40 420.60 L 642.20 418.20 L 642.20 416.60 L 642.60 415.20 L 643.30 414.10 L 645.50 412.50 L 646.90 412.00 L 652.00 411.40 L 653.10 410.80 L 654.10 409.80 L 655.30 406.40 L 656.00 401.90 L 656.30 398.20 L 656.30 396.20 L 655.80 394.50 L 653.90 391.40 L 646.90 383.70 L 643.20 381.00 L 635.80 374.30 L 629.80 371.80 L 627.70 370.40 L 625.00 366.90 L 621.80 365.60 L 620.50 365.60 L 620.60 366.00 L 624.90 370.30 L 633.00 377.30 L 635.30 379.60 L 635.90 380.70 L 636.80 383.50 L 637.00 385.00 L 636.40 387.70 L 635.40 388.80 L 634.30 389.20 L 631.80 388.70 L 623.80 384.80 L 619.10 381.50 L 615.40 377.90 L 613.40 377.00 L 611.50 377.70 L 610.60 378.70 L 606.90 384.00 L 605.60 385.30 L 604.50 385.90 L 603.40 386.20 L 602.00 385.90 L 601.00 385.40 L 599.80 383.80 L 599.40 382.20 L 599.70 378.80 L 600.90 376.10 L 604.10 372.40 L 604.90 371.10 L 605.20 369.70 L 605.00 368.10 L 604.40 366.60 L 601.60 362.00 L 600.60 358.90 L 600.70 356.00 L 601.50 354.00 L 602.80 351.90 L 593.20 346.40 L 588.20 344.60 L 586.00 344.40 Z M 532.80 604.50 L 530.70 605.10 L 529.10 607.30 L 528.60 609.10 L 528.10 616.20 L 527.20 615.60 L 526.20 615.70 L 525.70 616.40 L 524.50 620.10 L 528.10 618.50 L 531.80 617.40 L 539.60 616.30 L 536.40 610.30 L 534.80 605.80 L 533.80 604.80 L 532.80 604.50 Z M 382.40 570.80 L 383.60 570.00 L 389.90 563.20 L 391.50 562.20 L 392.60 562.00 L 393.60 562.20 L 394.70 563.00 L 395.60 564.30 L 396.10 566.70 L 395.60 568.40 L 394.50 570.30 L 390.40 575.50 L 389.40 577.10 L 389.00 579.20 L 389.40 580.30 L 390.40 581.80 L 396.10 588.60 L 397.80 591.10 L 398.80 593.50 L 399.00 595.10 L 398.70 596.50 L 397.90 597.80 L 396.80 598.60 L 395.60 599.00 L 394.30 598.90 L 392.20 598.20 L 390.00 597.00 L 383.00 591.20 L 380.80 590.10 L 378.70 590.50 L 374.30 594.50 L 372.50 595.30 L 370.80 594.60 L 369.70 593.50 L 369.00 592.30 L 368.80 590.90 L 369.10 588.80 L 371.70 581.90 L 372.40 579.80 L 372.50 578.20 L 371.40 575.60 L 368.50 570.70 L 368.00 567.60 L 368.10 565.80 L 368.60 564.30 L 370.00 562.90 L 371.20 562.60 L 373.30 563.20 L 379.10 570.30 L 380.10 570.80 L 381.10 571.00 L 382.40 570.80 Z M 432.70 562.10 L 434.00 562.00 L 436.20 562.90 L 442.10 568.80 L 444.30 569.70 L 445.60 569.70 L 446.90 569.20 L 448.00 568.30 L 451.90 563.90 L 453.60 562.90 L 455.00 562.70 L 456.10 563.00 L 457.00 563.80 L 457.60 565.10 L 457.90 567.00 L 457.60 568.70 L 454.80 574.60 L 454.40 576.10 L 454.60 577.90 L 456.40 580.50 L 460.20 584.00 L 462.90 587.20 L 465.10 591.00 L 465.80 593.00 L 465.80 596.80 L 464.90 598.50 L 463.90 599.00 L 460.90 598.40 L 456.70 596.40 L 448.00 590.30 L 446.60 589.80 L 444.70 590.30 L 443.50 591.10 L 437.30 596.70 L 435.30 597.30 L 433.60 596.50 L 432.00 593.30 L 431.70 591.10 L 432.00 589.20 L 435.20 582.00 L 435.40 580.40 L 434.50 577.80 L 431.90 573.70 L 430.80 570.90 L 430.00 567.30 L 430.00 565.40 L 430.40 563.90 L 431.70 562.50 L 432.70 562.10 Z M 209.40 521.10 L 214.10 520.10 L 215.60 520.00 L 216.80 520.40 L 217.80 521.60 L 218.00 522.90 L 217.70 524.20 L 217.00 525.20 L 214.60 526.50 L 205.20 530.10 L 192.70 536.40 L 187.00 540.00 L 181.40 543.90 L 176.10 548.30 L 171.00 553.10 L 160.90 564.70 L 153.80 574.40 L 148.90 582.90 L 148.10 583.60 L 147.30 584.00 L 146.30 583.70 L 145.40 582.80 L 145.00 581.50 L 145.10 580.00 L 146.80 575.00 L 150.90 566.70 L 157.40 556.10 L 161.10 551.10 L 169.30 541.90 L 173.90 537.60 L 178.80 533.80 L 184.00 530.30 L 188.10 527.90 L 196.30 524.60 L 209.40 521.10 Z M 354.10 521.20 L 351.10 520.10 L 349.90 520.00 L 348.70 520.40 L 347.30 521.70 L 345.00 524.60 L 341.40 531.30 L 339.80 535.70 L 338.90 540.00 L 338.60 544.50 L 338.90 546.70 L 339.70 548.50 L 343.60 553.10 L 345.90 554.10 L 348.50 556.40 L 349.70 551.30 L 350.50 543.20 L 351.10 540.60 L 357.00 523.70 L 356.40 522.40 L 354.10 521.20 Z M 660.20 509.30 L 661.00 502.30 L 661.60 500.40 L 662.80 498.40 L 664.30 498.00 L 665.10 498.60 L 666.30 501.30 L 666.80 505.50 L 666.80 511.20 L 668.00 513.20 L 670.70 514.20 L 679.90 514.70 L 682.00 515.20 L 683.90 516.20 L 685.30 517.50 L 685.90 518.70 L 686.00 519.80 L 685.10 522.00 L 682.30 524.10 L 678.50 525.10 L 672.50 525.30 L 670.70 525.70 L 669.30 526.40 L 668.20 528.20 L 667.70 533.30 L 667.00 536.60 L 666.30 538.00 L 665.40 538.80 L 663.90 538.90 L 662.80 538.30 L 661.10 536.20 L 659.60 528.80 L 658.80 527.20 L 657.00 525.80 L 653.40 525.10 L 649.70 523.80 L 647.60 522.00 L 647.00 520.20 L 647.80 518.10 L 649.10 516.60 L 650.80 515.50 L 657.40 514.20 L 658.60 513.40 L 659.80 511.30 L 660.20 509.30 Z M 576.10 436.50 L 576.60 439.60 L 579.40 451.40 L 580.20 457.10 L 581.70 464.10 L 582.60 472.60 L 582.70 479.00 L 581.90 495.20 L 580.30 509.40 L 578.00 521.10 L 575.90 528.80 L 576.10 530.90 L 577.10 531.60 L 578.20 531.70 L 579.70 531.40 L 582.80 530.00 L 593.50 522.70 L 599.20 519.50 L 600.30 518.60 L 603.60 513.80 L 608.00 509.90 L 609.30 508.40 L 610.50 506.20 L 612.80 500.20 L 613.90 496.20 L 614.30 490.50 L 614.00 487.30 L 612.70 481.90 L 610.70 476.50 L 608.40 471.20 L 602.60 460.10 L 596.90 451.10 L 591.10 444.50 L 585.80 440.30 L 582.80 438.70 L 579.60 437.40 L 576.10 436.50 Z M 193.70 503.90 L 199.30 503.00 L 201.40 504.00 L 201.90 504.80 L 201.90 505.70 L 201.50 506.60 L 200.20 507.50 L 197.80 508.40 L 195.30 508.90 L 176.00 509.90 L 169.40 511.00 L 168.50 510.70 L 168.00 509.80 L 168.20 508.90 L 169.00 507.70 L 170.20 506.80 L 172.90 505.60 L 176.70 504.60 L 180.60 504.10 L 193.70 503.90 Z M 568.30 502.50 L 566.90 505.10 L 566.90 505.70 L 567.40 506.10 L 568.20 506.10 L 568.60 505.60 L 568.30 502.50 Z M 732.30 405.70 L 732.00 403.60 L 732.30 402.00 L 733.00 400.90 L 734.10 400.20 L 735.60 400.00 L 737.70 400.50 L 740.10 401.60 L 744.50 404.80 L 747.40 407.90 L 749.90 411.30 L 754.00 418.30 L 756.50 424.10 L 758.40 430.10 L 759.80 436.20 L 761.70 448.90 L 762.00 455.20 L 761.80 461.50 L 760.90 468.00 L 759.00 476.40 L 757.30 480.20 L 756.30 481.40 L 754.70 482.00 L 753.70 481.70 L 752.90 480.90 L 752.40 479.80 L 752.20 477.20 L 754.10 465.20 L 754.20 455.20 L 753.80 448.50 L 752.90 441.80 L 751.50 435.40 L 748.60 427.30 L 744.50 419.60 L 742.00 416.10 L 739.00 413.00 L 733.90 408.60 L 732.30 405.70 Z M 567.40 463.20 L 566.70 462.90 L 565.60 463.40 L 563.50 468.30 L 562.80 470.60 L 562.80 471.60 L 563.70 473.40 L 566.10 475.30 L 566.90 475.30 L 567.70 474.80 L 568.80 472.80 L 569.20 469.30 L 568.10 464.70 L 567.40 463.20 Z M 468.50 398.20 L 469.60 398.00 L 470.30 398.20 L 471.30 399.50 L 472.10 402.90 L 472.10 408.90 L 472.50 410.70 L 473.20 412.20 L 474.40 413.20 L 477.80 414.10 L 483.10 414.50 L 487.10 415.40 L 490.40 414.90 L 491.40 415.10 L 492.30 415.90 L 492.90 417.10 L 493.00 418.50 L 492.80 420.00 L 492.00 422.40 L 490.80 423.70 L 487.90 425.30 L 485.40 425.90 L 482.90 426.10 L 475.60 425.30 L 473.10 426.10 L 472.40 426.80 L 472.00 428.70 L 472.70 438.30 L 472.00 441.60 L 470.70 442.80 L 469.70 443.00 L 468.00 442.40 L 466.50 440.30 L 465.10 435.40 L 464.10 428.00 L 463.10 424.90 L 461.20 423.40 L 455.70 422.80 L 454.50 422.20 L 453.50 421.10 L 453.00 419.60 L 453.20 418.00 L 453.80 416.50 L 455.80 414.40 L 461.50 412.90 L 463.90 411.30 L 465.20 408.40 L 465.90 403.00 L 466.70 400.00 L 467.40 398.80 L 468.50 398.20 Z M 766.80 402.60 L 765.40 400.00 L 765.00 398.70 L 765.20 397.70 L 766.20 397.00 L 767.60 397.20 L 769.30 397.80 L 770.70 398.90 L 772.00 400.40 L 773.60 403.10 L 774.70 406.30 L 775.50 409.60 L 776.00 416.10 L 775.40 420.40 L 775.10 420.90 L 774.60 421.00 L 773.50 420.20 L 772.70 419.10 L 772.30 417.60 L 771.60 411.30 L 770.90 408.70 L 769.90 406.60 L 766.80 402.60 Z M 252.00 413.60 L 250.90 412.90 L 247.70 413.20 L 246.50 413.80 L 246.00 414.40 L 245.90 415.20 L 246.20 416.70 L 250.00 415.80 L 251.70 415.00 L 252.10 414.40 L 252.00 413.60 Z M 664.80 402.60 L 663.90 402.10 L 663.10 402.30 L 661.90 403.90 L 661.20 405.90 L 661.40 408.60 L 661.90 409.40 L 663.20 410.20 L 668.60 411.10 L 667.20 409.50 L 667.60 406.50 L 666.70 406.70 L 665.90 406.20 L 664.80 402.60 Z M 230.40 275.40 L 227.20 278.20 L 225.90 276.90 L 224.50 277.60 L 222.80 277.90 L 218.60 277.00 L 216.50 276.00 L 216.00 278.50 L 213.00 278.40 L 207.40 281.10 L 204.10 281.90 L 200.80 282.20 L 197.70 282.00 L 196.80 283.20 L 194.20 283.50 L 192.40 284.80 L 187.70 286.00 L 187.00 286.80 L 186.60 288.60 L 186.60 292.50 L 185.70 299.80 L 184.50 304.60 L 182.90 309.40 L 178.50 318.40 L 173.00 326.70 L 167.60 333.50 L 161.60 339.30 L 160.00 342.20 L 159.30 342.50 L 158.40 342.20 L 157.80 343.60 L 155.70 344.50 L 154.70 345.30 L 152.90 347.80 L 151.30 349.00 L 148.90 351.50 L 144.80 354.60 L 143.90 357.80 L 143.00 358.80 L 138.40 361.60 L 134.70 365.20 L 128.70 374.00 L 127.90 374.40 L 125.20 374.10 L 124.10 374.30 L 120.20 378.70 L 119.60 379.70 L 119.60 380.50 L 120.40 381.10 L 122.50 380.70 L 140.80 372.00 L 156.50 364.10 L 168.00 357.10 L 171.90 354.20 L 176.40 349.50 L 179.20 347.70 L 182.70 346.80 L 184.30 346.90 L 185.60 347.50 L 186.60 349.20 L 186.80 350.80 L 186.50 352.30 L 185.90 353.90 L 184.00 356.70 L 159.70 381.90 L 154.60 387.90 L 149.10 395.40 L 145.80 401.30 L 144.50 404.80 L 144.40 406.20 L 144.80 407.00 L 146.20 407.20 L 147.70 406.70 L 152.00 404.40 L 156.10 401.70 L 171.20 391.10 L 177.40 386.00 L 189.00 374.80 L 201.30 361.70 L 210.40 351.50 L 214.30 346.20 L 215.70 344.70 L 218.20 343.10 L 221.00 342.50 L 222.30 342.80 L 223.50 343.70 L 224.50 345.20 L 224.90 346.90 L 224.60 350.50 L 222.00 364.70 L 221.10 374.00 L 221.60 381.40 L 223.20 386.90 L 224.50 389.30 L 226.30 391.60 L 228.50 393.70 L 230.60 395.20 L 235.20 397.30 L 250.00 401.10 L 253.30 402.60 L 254.50 402.80 L 256.70 402.20 L 261.30 403.50 L 262.50 403.60 L 263.50 403.20 L 263.80 401.90 L 262.50 398.60 L 257.30 390.90 L 253.70 386.50 L 251.50 384.40 L 246.70 381.40 L 242.80 378.20 L 240.50 375.90 L 238.70 373.30 L 237.40 370.60 L 236.70 368.40 L 236.50 363.50 L 237.00 360.70 L 240.50 349.00 L 241.90 345.80 L 244.90 341.40 L 249.90 336.80 L 260.70 328.50 L 284.00 311.90 L 273.80 304.50 L 271.10 301.40 L 270.00 299.60 L 269.40 297.40 L 269.30 295.50 L 271.10 287.30 L 270.30 285.60 L 269.30 284.90 L 262.90 282.30 L 257.30 281.20 L 246.50 277.60 L 232.50 277.40 L 230.90 276.40 L 230.40 275.40 Z M 318.90 303.70 L 317.80 303.20 L 316.50 303.40 L 313.50 304.90 L 295.00 318.80 L 280.00 329.20 L 264.20 339.20 L 251.80 346.10 L 248.20 349.20 L 246.90 350.90 L 246.00 352.70 L 245.70 354.70 L 246.00 356.90 L 248.30 361.50 L 262.00 379.70 L 264.60 382.60 L 267.70 385.30 L 268.30 387.70 L 271.10 394.00 L 272.30 400.00 L 273.40 402.80 L 274.40 403.60 L 275.60 403.90 L 277.20 403.50 L 279.50 402.50 L 287.50 397.60 L 295.40 393.70 L 349.00 369.10 L 351.20 367.40 L 352.20 366.00 L 352.10 365.00 L 346.00 354.50 L 343.60 349.20 L 337.90 340.60 L 332.50 330.40 L 329.20 325.00 L 327.10 319.10 L 321.70 310.70 L 320.40 307.70 L 319.50 304.40 L 318.90 303.70 Z M 415.40 357.00 L 413.50 355.70 L 413.00 355.90 L 412.30 356.70 L 411.60 360.40 L 411.60 366.60 L 412.00 371.10 L 413.10 375.70 L 414.10 378.70 L 416.70 384.00 L 420.60 378.50 L 420.90 375.90 L 420.40 374.60 L 417.30 370.20 L 415.60 366.40 L 415.10 364.30 L 415.10 362.20 L 416.00 358.60 L 415.40 357.00 Z M 281.80 336.90 L 284.50 334.90 L 287.40 333.20 L 290.60 331.90 L 297.30 330.30 L 300.80 330.00 L 304.30 330.10 L 307.70 330.60 L 310.90 331.60 L 314.10 332.90 L 316.90 334.60 L 319.60 336.80 L 325.20 343.00 L 327.30 346.20 L 328.90 349.60 L 330.00 354.30 L 329.90 356.80 L 329.20 360.90 L 328.10 364.60 L 326.50 367.90 L 324.40 371.00 L 321.90 373.90 L 318.80 376.60 L 312.30 380.60 L 305.70 383.10 L 302.20 383.80 L 298.80 384.00 L 295.40 383.80 L 292.00 383.20 L 288.80 382.10 L 285.60 380.60 L 282.40 378.50 L 279.30 375.90 L 276.80 373.00 L 274.90 369.90 L 273.40 366.60 L 272.50 363.20 L 272.00 359.70 L 272.10 356.10 L 272.60 352.50 L 273.50 349.00 L 275.00 345.60 L 276.80 342.50 L 279.10 339.60 L 281.80 336.90 Z M 316.30 344.50 L 311.10 340.20 L 308.30 338.60 L 305.40 337.50 L 302.40 336.90 L 298.30 336.90 L 290.70 338.30 L 285.80 340.20 L 283.90 341.50 L 282.00 343.50 L 280.40 345.80 L 279.20 348.40 L 278.10 352.50 L 277.60 356.60 L 277.70 359.60 L 278.20 362.20 L 279.10 364.50 L 282.00 368.80 L 287.70 374.00 L 291.30 376.30 L 294.90 377.90 L 297.80 378.60 L 303.50 379.00 L 306.50 378.70 L 312.10 376.70 L 315.00 375.10 L 317.90 373.00 L 321.90 369.00 L 323.40 366.70 L 324.50 364.30 L 325.10 361.70 L 325.10 358.70 L 324.50 356.00 L 323.40 353.40 L 320.20 348.60 L 316.30 344.50 Z M 298.00 343.80 L 299.20 340.70 L 299.70 340.10 L 300.60 340.00 L 301.50 340.80 L 302.60 343.20 L 305.60 344.00 L 306.70 344.60 L 306.90 345.50 L 306.70 346.10 L 304.20 348.10 L 303.30 349.40 L 301.70 355.40 L 300.90 356.90 L 300.20 355.90 L 298.80 352.20 L 297.50 350.40 L 295.60 350.10 L 292.00 350.70 L 291.40 351.10 L 294.10 353.10 L 294.50 354.70 L 293.90 355.60 L 293.10 356.20 L 290.20 356.60 L 289.50 357.00 L 289.00 358.00 L 289.00 359.80 L 290.50 361.00 L 296.90 362.40 L 297.90 363.40 L 298.50 364.60 L 299.50 368.70 L 300.10 369.80 L 301.50 370.60 L 302.80 370.80 L 304.20 370.50 L 310.30 367.80 L 312.20 368.30 L 312.70 368.90 L 313.00 370.40 L 311.80 373.00 L 310.40 375.00 L 308.50 373.20 L 306.90 372.70 L 301.60 374.10 L 298.60 374.10 L 297.50 373.40 L 296.50 372.30 L 295.00 367.90 L 294.40 367.00 L 292.20 366.00 L 288.80 365.90 L 287.70 365.50 L 286.70 364.80 L 285.90 363.50 L 285.60 362.10 L 285.60 359.10 L 285.90 355.70 L 284.20 353.00 L 284.00 351.70 L 284.50 350.90 L 285.30 350.40 L 287.80 350.20 L 291.40 351.10 L 290.50 348.70 L 291.40 347.10 L 297.10 344.60 L 298.00 343.80 Z M 311.80 351.90 L 312.60 351.20 L 313.50 351.10 L 315.80 356.30 L 316.60 356.80 L 320.30 356.70 L 320.90 357.10 L 321.00 358.00 L 320.50 358.60 L 319.40 359.10 L 315.60 359.90 L 314.90 360.40 L 313.60 364.70 L 313.10 365.60 L 312.20 366.00 L 311.30 365.80 L 310.70 364.10 L 310.80 360.90 L 308.40 361.00 L 306.00 360.40 L 307.50 358.00 L 309.70 357.50 L 310.40 357.00 L 310.90 356.20 L 311.30 352.60 L 311.80 351.90 Z M 421.70 359.20 L 426.50 363.90 L 428.30 365.00 L 429.80 365.30 L 431.80 364.70 L 434.40 361.90 L 430.40 360.20 L 421.70 359.20 Z M 555.00 355.80 L 547.40 358.00 L 545.80 358.70 L 545.20 359.40 L 545.20 360.20 L 545.80 360.90 L 546.80 361.30 L 548.30 361.30 L 550.90 360.00 L 555.00 355.80 Z M 335.50 290.50 L 331.90 291.30 L 325.20 294.80 L 331.90 305.90 L 336.60 314.70 L 341.30 322.50 L 345.50 330.90 L 353.00 343.60 L 361.20 358.50 L 363.00 360.70 L 364.00 361.20 L 365.70 361.20 L 369.60 359.50 L 370.70 358.60 L 371.50 357.60 L 371.80 356.10 L 371.30 353.60 L 368.70 349.00 L 360.20 330.60 L 345.10 303.10 L 344.70 308.30 L 343.90 310.80 L 343.30 311.50 L 342.40 311.70 L 340.80 310.70 L 339.60 307.80 L 339.30 305.40 L 338.80 293.70 L 337.70 291.40 L 335.50 290.50 Z M 613.40 359.90 L 613.60 358.70 L 613.10 357.80 L 612.30 357.70 L 610.80 358.30 L 613.40 359.90 Z M 790.10 179.90 L 784.40 176.90 L 783.00 176.70 L 782.10 177.10 L 781.80 177.80 L 782.00 179.10 L 783.10 182.20 L 785.80 187.70 L 787.60 192.60 L 789.40 200.80 L 789.50 207.60 L 788.80 213.70 L 787.70 219.80 L 786.10 226.00 L 784.10 232.00 L 779.20 243.30 L 776.70 247.90 L 773.80 252.20 L 770.50 256.20 L 766.80 260.00 L 762.80 263.30 L 758.50 266.20 L 757.00 266.90 L 752.30 267.70 L 746.80 269.40 L 742.80 269.40 L 735.10 267.50 L 732.30 267.40 L 729.00 267.90 L 727.20 267.60 L 723.40 266.60 L 713.20 265.80 L 700.60 263.40 L 688.70 259.90 L 674.70 254.20 L 666.30 250.20 L 661.00 247.30 L 655.90 244.10 L 636.10 230.20 L 616.80 217.60 L 609.70 212.00 L 603.90 209.10 L 598.60 205.10 L 592.90 202.90 L 591.30 199.10 L 590.50 200.20 L 589.70 200.80 L 588.80 201.00 L 587.30 200.70 L 579.10 195.80 L 573.20 194.60 L 561.40 194.10 L 557.00 193.40 L 555.00 193.60 L 553.90 194.50 L 552.10 200.90 L 550.60 203.30 L 546.80 207.30 L 542.30 210.50 L 537.60 213.20 L 529.40 216.90 L 525.10 218.10 L 519.40 218.90 L 516.50 218.80 L 516.10 218.20 L 514.80 217.90 L 514.10 218.40 L 512.20 218.00 L 504.80 218.30 L 498.80 216.80 L 487.40 211.60 L 487.60 212.90 L 487.40 214.30 L 486.80 215.50 L 485.00 217.70 L 483.00 218.80 L 478.40 219.40 L 477.70 219.90 L 477.30 220.70 L 477.40 237.20 L 477.00 242.40 L 475.20 251.90 L 473.80 256.30 L 471.90 260.50 L 469.70 264.60 L 466.90 268.70 L 463.10 273.10 L 458.80 277.10 L 456.30 278.60 L 453.70 279.60 L 450.00 280.00 L 447.90 279.70 L 442.70 277.60 L 440.30 276.00 L 437.00 273.20 L 431.30 266.80 L 426.90 259.30 L 424.30 253.40 L 422.10 247.20 L 418.70 234.60 L 416.20 238.50 L 414.00 242.70 L 410.20 253.00 L 407.90 256.60 L 406.30 261.80 L 404.90 264.60 L 403.80 269.80 L 401.20 278.80 L 399.80 285.60 L 397.40 290.00 L 397.00 291.50 L 398.00 295.10 L 397.00 296.60 L 395.80 299.60 L 395.10 309.70 L 393.40 323.40 L 393.70 327.50 L 395.70 332.60 L 397.50 333.60 L 402.90 335.60 L 404.30 338.10 L 406.60 337.00 L 408.00 337.90 L 410.50 338.70 L 422.40 341.30 L 439.00 344.30 L 455.20 346.50 L 469.30 349.00 L 481.80 350.00 L 487.20 350.00 L 489.00 350.30 L 490.40 351.10 L 492.40 350.60 L 499.30 350.60 L 505.00 349.80 L 507.80 350.00 L 510.90 350.60 L 512.40 352.00 L 514.30 350.20 L 514.90 351.60 L 515.70 352.00 L 517.50 350.20 L 519.30 349.40 L 523.20 350.10 L 528.00 348.90 L 532.50 349.30 L 534.30 348.90 L 539.90 346.80 L 557.40 342.90 L 561.70 341.50 L 568.00 338.80 L 570.20 337.30 L 572.20 335.50 L 573.50 333.60 L 573.90 330.90 L 569.10 317.40 L 566.80 308.70 L 565.10 299.80 L 564.20 293.00 L 563.50 279.60 L 563.70 272.90 L 564.40 266.60 L 565.60 260.50 L 567.40 254.60 L 571.10 244.90 L 573.80 238.80 L 577.30 233.30 L 579.60 230.90 L 582.20 229.00 L 583.10 232.40 L 582.60 237.20 L 581.80 240.20 L 577.40 251.10 L 572.90 265.20 L 572.20 268.50 L 572.30 270.10 L 572.70 271.60 L 573.70 273.00 L 575.10 274.20 L 587.30 282.40 L 597.30 289.60 L 604.60 293.30 L 622.20 303.30 L 631.20 307.70 L 640.60 311.70 L 661.10 319.60 L 669.40 322.50 L 677.80 324.90 L 688.10 327.10 L 698.50 329.00 L 703.30 329.50 L 725.40 329.80 L 739.80 328.90 L 747.00 327.80 L 754.00 326.20 L 761.00 324.20 L 767.60 321.70 L 773.90 318.80 L 780.00 315.50 L 788.90 310.10 L 797.50 304.00 L 801.40 300.80 L 804.80 297.30 L 818.90 281.80 L 821.80 278.10 L 824.40 274.20 L 830.40 263.20 L 836.90 250.00 L 841.10 238.70 L 847.40 214.10 L 848.00 206.10 L 849.40 199.80 L 849.50 195.70 L 850.00 192.10 L 849.90 190.50 L 849.00 188.80 L 847.90 188.20 L 846.00 188.10 L 843.50 188.40 L 841.50 189.20 L 841.10 189.90 L 841.30 190.70 L 840.20 191.00 L 836.60 191.20 L 835.50 191.50 L 834.60 192.40 L 834.30 189.40 L 831.20 191.20 L 829.40 191.60 L 824.40 191.90 L 821.60 191.50 L 820.10 190.70 L 819.80 190.00 L 820.00 188.90 L 816.80 190.20 L 814.80 190.10 L 812.80 188.70 L 808.90 187.10 L 806.60 186.80 L 806.00 187.30 L 803.30 185.00 L 801.50 184.10 L 790.10 179.90 Z M 333.50 254.10 L 333.50 252.80 L 333.30 252.30 L 332.80 252.10 L 330.70 252.80 L 315.90 263.80 L 310.40 268.40 L 305.40 273.10 L 295.80 283.30 L 291.30 288.60 L 288.70 292.60 L 287.80 293.40 L 287.10 293.60 L 286.70 293.40 L 283.80 289.60 L 280.80 288.30 L 279.50 288.10 L 278.60 288.50 L 278.20 289.30 L 278.70 291.70 L 281.10 295.70 L 286.50 301.10 L 290.00 306.50 L 290.90 307.00 L 291.80 307.00 L 294.60 305.50 L 304.30 298.20 L 310.10 294.90 L 313.90 291.80 L 330.60 284.30 L 334.80 282.80 L 335.90 282.10 L 336.60 281.00 L 337.10 278.90 L 333.90 255.60 L 333.50 254.10 Z M 318.10 189.10 L 315.80 189.20 L 311.60 191.30 L 308.10 192.40 L 308.10 193.10 L 307.50 193.20 L 306.30 192.60 L 297.40 196.50 L 296.50 196.10 L 294.60 198.00 L 293.20 198.10 L 292.20 196.90 L 291.20 198.10 L 288.20 199.90 L 279.60 202.60 L 276.90 204.70 L 272.40 206.60 L 269.60 209.10 L 265.00 210.00 L 264.10 210.60 L 262.50 212.90 L 261.40 214.00 L 260.30 214.50 L 255.30 215.80 L 253.70 216.70 L 250.20 220.20 L 244.30 223.40 L 242.50 225.10 L 241.90 225.50 L 238.90 226.00 L 237.50 227.00 L 217.60 245.20 L 216.70 245.80 L 212.60 247.20 L 210.60 250.30 L 197.20 262.30 L 193.30 266.60 L 212.80 262.70 L 225.90 260.70 L 232.50 260.30 L 241.30 260.80 L 250.10 262.70 L 258.80 265.80 L 265.10 268.80 L 271.00 272.20 L 274.60 274.90 L 278.50 275.50 L 281.20 276.50 L 285.90 279.90 L 288.20 282.40 L 297.70 270.00 L 306.90 260.00 L 311.90 255.50 L 317.40 251.30 L 329.50 243.90 L 330.70 242.70 L 331.40 241.10 L 331.40 238.80 L 328.80 229.30 L 322.80 201.40 L 321.50 194.20 L 320.00 190.60 L 318.10 189.10 Z M 444.60 169.80 L 437.70 169.00 L 434.60 169.50 L 433.10 170.80 L 432.20 173.50 L 425.60 214.00 L 425.80 215.40 L 426.80 217.10 L 428.80 217.80 L 432.60 218.00 L 433.20 218.50 L 433.50 219.60 L 433.30 220.40 L 432.60 220.90 L 427.00 222.30 L 426.00 223.10 L 425.40 224.20 L 425.20 225.70 L 425.80 237.10 L 426.90 243.20 L 429.70 252.10 L 431.70 256.50 L 434.10 260.60 L 438.10 265.50 L 440.30 267.50 L 442.60 269.00 L 446.60 270.40 L 448.40 270.50 L 450.80 270.10 L 453.20 269.20 L 455.50 267.70 L 458.70 265.00 L 461.80 261.60 L 464.70 257.50 L 467.00 253.20 L 468.80 248.60 L 470.10 243.80 L 471.00 239.00 L 472.50 224.70 L 472.40 222.40 L 471.90 220.90 L 470.90 219.80 L 469.50 219.20 L 463.40 218.60 L 460.90 217.80 L 458.40 216.70 L 455.90 215.00 L 451.50 211.00 L 449.50 208.60 L 446.50 203.70 L 444.70 198.10 L 444.20 192.20 L 444.60 187.90 L 445.60 183.60 L 449.30 173.20 L 449.20 172.10 L 448.60 171.20 L 447.60 170.50 L 444.60 169.80 Z M 426.00 171.10 L 425.80 169.70 L 425.40 168.90 L 424.60 168.50 L 409.00 168.70 L 403.10 169.10 L 386.90 171.90 L 375.20 172.50 L 369.30 175.20 L 358.80 176.90 L 350.30 178.70 L 347.60 179.70 L 343.70 181.80 L 337.10 181.60 L 331.70 182.80 L 327.20 186.70 L 326.50 189.30 L 326.70 191.30 L 337.80 238.10 L 355.70 229.90 L 368.00 225.40 L 384.40 221.40 L 392.60 220.00 L 409.80 217.80 L 417.70 215.10 L 418.90 213.20 L 421.00 197.50 L 423.50 184.10 L 425.80 174.30 L 426.00 171.10 Z M 264.30 157.10 L 268.40 156.00 L 269.40 156.20 L 270.20 156.80 L 270.90 158.10 L 271.00 159.50 L 270.60 160.60 L 268.90 162.40 L 266.70 163.70 L 258.50 167.30 L 233.30 176.60 L 225.10 180.00 L 217.00 184.00 L 202.20 193.00 L 187.70 203.00 L 174.30 214.10 L 171.00 219.10 L 169.70 220.00 L 167.60 220.90 L 166.20 221.00 L 165.20 220.70 L 164.40 220.10 L 164.10 218.80 L 164.10 216.50 L 165.50 213.00 L 168.60 209.10 L 176.30 201.40 L 182.00 196.40 L 194.00 187.00 L 201.20 182.10 L 208.70 177.40 L 216.30 173.10 L 224.20 169.30 L 232.30 165.90 L 240.60 163.10 L 258.50 158.80 L 264.30 157.10 Z M 465.40 183.60 L 462.40 179.60 L 460.30 178.30 L 459.00 178.30 L 457.40 178.90 L 456.00 180.10 L 454.20 183.10 L 453.10 188.80 L 452.90 194.30 L 454.10 199.60 L 456.60 204.20 L 460.40 208.10 L 464.80 210.60 L 468.20 211.10 L 473.60 210.60 L 475.50 211.20 L 475.90 211.10 L 476.40 210.40 L 476.60 209.30 L 476.00 204.00 L 474.30 198.50 L 470.20 190.90 L 465.40 183.60 Z M 520.70 152.50 L 520.30 159.10 L 519.10 162.20 L 517.90 163.50 L 516.50 164.10 L 512.10 164.80 L 510.80 165.70 L 509.70 168.70 L 508.90 169.10 L 505.90 169.50 L 504.40 170.30 L 498.70 174.20 L 496.30 175.00 L 494.50 174.80 L 493.80 174.20 L 493.20 174.20 L 488.70 178.20 L 487.70 179.90 L 487.60 182.50 L 488.10 184.20 L 490.10 188.00 L 489.90 191.50 L 491.40 192.30 L 491.60 193.30 L 491.30 197.50 L 492.00 200.20 L 493.00 201.60 L 495.50 204.00 L 500.20 207.00 L 502.00 207.60 L 514.60 209.40 L 518.80 209.70 L 523.10 209.70 L 527.30 209.30 L 531.40 208.40 L 536.40 206.50 L 540.70 204.20 L 542.50 202.60 L 543.90 200.60 L 545.00 197.90 L 545.60 194.90 L 545.90 188.80 L 545.20 180.80 L 543.10 172.60 L 541.60 168.70 L 537.70 161.40 L 537.20 160.00 L 537.10 158.60 L 537.60 157.10 L 534.70 158.10 L 534.20 158.60 L 533.10 161.50 L 531.00 159.90 L 525.40 154.70 L 523.30 153.30 L 520.70 152.50 Z M 470.00 173.30 L 468.70 173.10 L 467.70 173.40 L 467.00 174.00 L 466.40 175.80 L 466.60 176.80 L 468.80 180.40 L 474.20 187.50 L 477.20 192.70 L 479.80 198.10 L 481.30 201.90 L 482.30 205.70 L 483.00 209.80 L 484.20 208.90 L 485.10 207.60 L 485.50 206.00 L 485.60 203.30 L 485.20 200.00 L 483.30 193.80 L 481.30 189.30 L 477.90 183.00 L 473.10 176.20 L 471.50 174.30 L 470.00 173.30 Z M 528.40 194.10 L 531.80 193.10 L 533.00 193.00 L 533.90 193.40 L 534.60 194.10 L 535.00 195.70 L 534.80 197.50 L 534.10 199.00 L 532.90 200.30 L 529.70 201.80 L 525.90 201.90 L 522.00 200.70 L 520.40 199.60 L 519.10 197.70 L 519.30 195.50 L 526.50 194.60 L 528.40 194.10 Z M 524.80 173.10 L 525.70 173.10 L 526.80 173.70 L 534.50 181.30 L 535.70 182.80 L 537.00 185.90 L 536.80 187.40 L 535.60 189.20 L 534.30 190.10 L 531.90 190.90 L 529.30 190.70 L 528.20 190.10 L 527.60 189.00 L 527.40 187.70 L 527.90 186.80 L 528.70 186.20 L 532.10 185.00 L 528.30 181.10 L 525.00 176.70 L 524.00 174.30 L 524.10 173.60 L 524.80 173.10 Z M 511.90 172.00 L 513.30 173.30 L 514.70 175.20 L 515.80 177.50 L 516.60 180.10 L 517.00 182.80 L 516.90 185.20 L 516.40 186.80 L 514.80 189.20 L 513.70 189.80 L 511.50 189.80 L 509.80 189.10 L 506.50 185.90 L 505.10 183.80 L 503.30 179.50 L 503.00 177.50 L 503.20 176.10 L 506.20 178.20 L 511.70 183.20 L 511.30 177.60 L 511.30 174.80 L 511.90 172.00 Z M 548.80 140.20 L 545.50 140.70 L 544.90 141.60 L 545.00 142.30 L 546.80 144.40 L 551.50 148.40 L 553.20 151.30 L 553.40 152.80 L 553.10 154.00 L 551.50 155.30 L 549.90 155.70 L 552.10 159.00 L 553.70 162.70 L 554.80 166.60 L 555.30 170.60 L 555.20 173.30 L 554.90 175.90 L 553.60 180.70 L 553.70 181.80 L 554.10 182.50 L 555.40 183.20 L 558.20 183.70 L 560.50 183.80 L 563.50 183.10 L 565.60 181.10 L 566.90 178.70 L 567.80 176.20 L 568.20 173.60 L 568.20 169.60 L 567.60 165.50 L 566.50 161.50 L 564.00 154.90 L 561.10 149.10 L 559.20 146.40 L 557.00 143.90 L 554.60 142.00 L 550.90 140.40 L 548.80 140.20 Z M 537.10 171.10 L 536.40 168.80 L 536.20 166.70 L 536.90 166.00 L 538.50 166.50 L 539.80 169.40 L 540.90 175.00 L 541.00 176.90 L 540.50 179.70 L 539.10 180.90 L 538.20 181.00 L 536.20 180.20 L 533.20 177.10 L 530.90 173.00 L 530.20 170.80 L 530.10 167.90 L 530.50 167.20 L 531.30 166.60 L 536.80 176.30 L 537.40 173.70 L 537.10 171.10 Z M 852.60 67.10 L 849.80 67.00 L 848.80 67.20 L 847.60 68.30 L 846.60 70.90 L 845.20 71.50 L 843.60 71.10 L 842.40 71.20 L 840.00 73.80 L 837.80 75.60 L 836.50 76.30 L 835.30 76.50 L 833.00 75.20 L 831.70 76.90 L 819.00 82.70 L 813.60 86.10 L 807.90 88.10 L 803.20 92.00 L 801.50 92.70 L 798.90 93.10 L 798.00 93.80 L 796.90 96.10 L 792.00 98.20 L 788.30 102.90 L 785.10 105.00 L 783.20 107.40 L 779.70 109.00 L 778.00 112.70 L 777.30 113.50 L 774.70 115.60 L 770.30 120.40 L 766.70 123.60 L 766.20 124.70 L 766.30 125.80 L 766.90 127.00 L 769.00 129.00 L 770.30 130.80 L 770.00 132.90 L 768.90 134.10 L 766.60 134.40 L 758.70 132.80 L 753.10 132.20 L 751.60 131.70 L 750.70 131.00 L 750.10 131.00 L 749.50 131.70 L 746.90 131.80 L 744.40 131.60 L 741.80 130.80 L 739.30 131.10 L 734.90 130.60 L 733.80 131.60 L 733.20 133.00 L 733.90 132.30 L 736.40 132.20 L 741.10 133.70 L 746.00 136.40 L 747.90 135.80 L 749.00 136.20 L 757.80 140.30 L 767.70 145.90 L 771.40 148.60 L 777.30 153.80 L 783.40 161.50 L 786.10 165.90 L 787.50 167.00 L 790.20 168.20 L 813.00 175.30 L 822.50 177.60 L 831.70 178.60 L 836.20 178.60 L 840.30 177.90 L 841.60 177.30 L 842.50 176.50 L 843.00 175.40 L 843.20 173.40 L 842.80 170.90 L 840.90 165.50 L 836.70 156.90 L 831.90 145.40 L 831.50 142.80 L 832.40 140.10 L 833.50 138.70 L 836.20 136.00 L 839.00 133.80 L 841.80 132.30 L 844.70 131.30 L 847.80 130.70 L 875.10 128.10 L 891.50 127.20 L 896.10 126.10 L 905.40 125.00 L 908.70 124.30 L 912.00 123.30 L 913.50 122.10 L 913.40 121.50 L 912.70 120.70 L 911.00 119.60 L 906.70 117.80 L 899.80 115.80 L 889.00 114.30 L 878.20 114.20 L 850.30 116.30 L 845.40 117.20 L 844.40 118.30 L 843.90 118.50 L 843.10 118.20 L 841.20 116.30 L 839.30 118.00 L 838.00 116.10 L 837.50 114.60 L 837.60 113.30 L 838.90 110.90 L 842.30 108.50 L 849.60 105.60 L 860.10 102.00 L 881.60 95.20 L 887.20 92.60 L 889.50 90.80 L 891.20 88.70 L 891.40 88.00 L 891.00 87.10 L 890.10 86.40 L 887.20 85.70 L 878.40 85.40 L 876.50 85.60 L 872.30 86.90 L 868.20 86.10 L 863.70 86.10 L 861.60 86.60 L 859.60 88.70 L 856.10 88.50 L 851.90 89.30 L 836.20 94.00 L 830.10 94.90 L 828.20 94.80 L 826.40 94.30 L 825.00 93.40 L 824.30 92.20 L 824.20 91.00 L 824.70 89.60 L 826.10 87.50 L 828.50 85.20 L 834.60 80.80 L 853.10 70.60 L 854.80 68.90 L 854.80 68.20 L 854.30 67.70 L 852.60 67.10 Z M 362.90 89.90 L 362.70 88.10 L 362.20 87.00 L 360.50 86.00 L 358.00 86.10 L 353.70 87.60 L 350.20 89.40 L 343.70 94.10 L 337.40 100.70 L 334.30 104.90 L 331.50 109.40 L 327.00 118.80 L 325.40 123.80 L 323.20 132.90 L 322.60 137.40 L 322.20 144.20 L 322.50 162.50 L 322.90 165.70 L 324.00 169.70 L 324.80 170.50 L 325.60 171.00 L 328.30 170.70 L 333.80 168.40 L 336.30 167.60 L 349.00 165.10 L 368.70 160.30 L 364.40 153.50 L 361.60 146.70 L 360.00 139.60 L 359.50 133.90 L 359.40 127.80 L 359.80 121.50 L 362.00 102.60 L 362.90 89.90 Z M 505.10 94.50 L 498.90 94.10 L 492.40 94.30 L 488.10 94.80 L 480.00 96.70 L 472.60 99.30 L 467.50 102.00 L 465.30 103.70 L 463.40 105.70 L 461.90 107.90 L 459.90 112.70 L 459.00 116.60 L 458.50 120.60 L 457.90 132.40 L 459.50 147.00 L 459.60 153.50 L 459.90 155.90 L 461.70 160.50 L 462.60 161.90 L 464.10 162.90 L 467.80 162.70 L 466.80 159.90 L 466.50 157.80 L 466.70 156.00 L 467.30 154.10 L 471.30 146.30 L 474.60 137.80 L 475.50 136.50 L 476.30 136.00 L 477.30 135.80 L 478.80 136.00 L 480.60 137.10 L 482.10 136.80 L 485.90 131.80 L 489.50 128.00 L 490.90 127.20 L 492.50 126.90 L 494.20 127.20 L 496.20 128.50 L 497.70 128.10 L 500.30 126.20 L 504.80 121.50 L 506.70 120.40 L 507.70 120.40 L 508.80 120.90 L 509.40 121.80 L 509.80 123.00 L 510.30 128.10 L 517.40 124.80 L 519.60 124.40 L 521.90 124.60 L 524.70 126.00 L 526.40 127.50 L 527.90 129.60 L 531.10 131.00 L 534.90 135.20 L 535.70 135.50 L 536.60 135.30 L 537.10 134.80 L 537.00 132.50 L 534.30 126.70 L 527.50 113.60 L 524.80 109.30 L 521.90 105.40 L 517.20 100.40 L 514.50 98.20 L 511.60 96.50 L 508.50 95.20 L 505.10 94.50 Z M 431.50 146.00 L 431.70 141.20 L 431.30 138.10 L 430.50 135.10 L 428.30 130.70 L 425.60 128.20 L 424.00 127.50 L 422.10 127.10 L 419.90 127.10 L 416.90 127.80 L 414.20 128.80 L 411.70 130.30 L 408.20 133.00 L 405.00 136.10 L 388.40 156.00 L 410.40 154.60 L 415.80 154.60 L 421.30 155.00 L 426.90 155.90 L 428.20 155.60 L 429.30 154.80 L 429.90 153.90 L 431.10 149.30 L 431.50 146.00 Z M 235.80 140.00 L 238.20 140.20 L 239.70 140.60 L 240.50 141.10 L 241.00 141.90 L 240.90 142.80 L 240.40 143.70 L 238.10 145.30 L 221.20 149.20 L 216.20 150.00 L 215.20 148.90 L 215.00 147.90 L 215.40 146.90 L 217.50 145.20 L 222.30 143.10 L 225.70 142.10 L 235.80 140.00 Z M 544.10 128.40 L 544.10 133.30 L 544.80 132.90 L 545.20 131.30 L 544.10 128.40 Z M 767.20 38.70 L 769.30 37.20 L 770.80 37.20 L 771.90 39.00 L 771.70 41.10 L 770.40 43.30 L 756.10 60.50 L 750.80 68.40 L 745.90 76.70 L 742.70 83.30 L 742.00 86.70 L 742.10 91.30 L 741.80 92.70 L 741.10 94.00 L 740.30 94.80 L 739.10 94.90 L 737.60 93.10 L 736.70 90.80 L 736.00 86.40 L 736.40 81.90 L 737.50 77.70 L 739.10 73.70 L 743.40 66.20 L 748.60 58.70 L 754.30 51.60 L 758.40 47.00 L 767.20 38.70 Z M 717.20 64.40 L 718.20 63.00 L 719.50 62.10 L 720.20 62.00 L 720.80 62.40 L 721.00 63.10 L 720.90 64.10 L 719.00 70.60 L 718.50 73.60 L 719.00 79.90 L 718.80 81.60 L 718.40 82.50 L 717.30 83.00 L 716.40 82.00 L 715.10 76.20 L 715.30 70.10 L 716.30 66.10 L 717.20 64.40 Z" fill="#000000" fill-rule="evenodd" id="Shape" node-id="4" stroke="none" target-height="694.7" target-width="822.5" target-x="101.1" target-y="37.2"></path></svg>