<?xml version="1.0" standalone="no"?><!DOCTYPE svg PUBLIC "-//W3C//DTD SVG 1.1//EN" "http://www.w3.org/Graphics/SVG/1.1/DTD/svg11.dtd"><svg height="800" node-id="1" sillyvg="true" template-height="800" template-width="800" version="1.1" viewBox="0 0 800 800" width="800" xmlns="http://www.w3.org/2000/svg" xmlns:xlink="http://www.w3.org/1999/xlink"><defs node-id="70"></defs><g node-id="234"><g node-id="236"><g node-id="237"><g node-id="239"><g node-id="257"><path d="M 693.50 167.40 L 693.30 170.00 L 692.00 175.00 L 689.40 179.40 L 687.70 181.40 L 685.70 183.10 L 681.30 185.70 L 676.30 187.00 L 673.70 187.20 L 671.10 187.00 L 666.10 185.70 L 661.70 183.10 L 659.70 181.40 L 656.60 177.30 L 654.60 172.50 L 654.10 170.00 L 653.90 167.40 L 654.60 162.30 L 656.60 157.50 L 659.70 153.40 L 661.70 151.70 L 666.10 149.10 L 671.10 147.80 L 673.70 147.60 L 676.30 147.80 L 681.30 149.10 L 685.70 151.70 L 687.70 153.40 L 689.40 155.40 L 692.00 159.80 L 693.30 164.80 L 693.50 167.40 Z" fill="#f3f3f3" fill-rule="nonzero" group-id="6,8,9,11,29" node-id="86" stroke="none" target-height="39.59999" target-width="39.599976" target-x="653.9" target-y="147.6"></path></g></g><g node-id="240"><g node-id="258"><path d="M 125.40 619.20 L 125.20 621.80 L 123.80 626.80 L 121.30 631.20 L 119.60 633.20 L 117.60 634.90 L 113.10 637.50 L 108.20 638.80 L 105.60 639.00 L 103.00 638.80 L 98.00 637.50 L 93.60 634.90 L 91.60 633.20 L 88.40 629.10 L 86.50 624.30 L 86.00 621.80 L 85.80 619.20 L 86.50 614.10 L 88.40 609.30 L 91.60 605.20 L 93.60 603.50 L 98.00 600.90 L 103.00 599.60 L 105.60 599.40 L 108.20 599.60 L 113.10 600.90 L 117.60 603.50 L 119.60 605.20 L 121.30 607.20 L 123.80 611.60 L 125.20 616.60 L 125.40 619.20 Z" fill="#f3f3f3" fill-rule="nonzero" group-id="6,8,9,12,30" node-id="94" stroke="none" target-height="39.599976" target-width="39.6" target-x="85.8" target-y="599.4"></path></g></g><g node-id="241"><g node-id="259"><path d="M 226.70 681.20 L 224.30 681.00 L 222.00 680.40 L 218.10 678.00 L 215.10 674.60 L 214.10 672.50 L 213.50 670.20 L 213.30 667.80 L 213.50 665.40 L 214.10 663.10 L 216.50 659.20 L 219.90 656.30 L 222.00 655.30 L 224.30 654.70 L 226.70 654.40 L 229.10 654.70 L 231.40 655.30 L 235.30 657.60 L 238.20 661.10 L 239.20 663.10 L 239.80 665.40 L 240.10 667.80 L 239.80 670.20 L 239.20 672.50 L 238.20 674.60 L 235.30 678.00 L 231.40 680.40 L 229.10 681.00 L 226.70 681.20 Z M 226.70 660.90 L 224.80 661.10 L 223.20 661.80 L 221.80 662.90 L 220.70 664.30 L 220.00 666.00 L 219.70 667.80 L 220.00 669.70 L 220.70 671.30 L 221.80 672.70 L 223.20 673.80 L 224.80 674.50 L 226.70 674.80 L 228.50 674.50 L 230.20 673.80 L 231.60 672.70 L 232.70 671.30 L 233.40 669.70 L 233.60 667.80 L 233.40 666.00 L 232.70 664.30 L 231.60 662.90 L 230.20 661.80 L 228.60 661.10 L 226.70 660.90 Z" fill="#f3f3f3" fill-rule="nonzero" group-id="6,8,9,13,31" node-id="102" stroke="none" target-height="26.799988" target-width="26.800003" target-x="213.3" target-y="654.4"></path></g></g><g node-id="242"><g node-id="260"><path d="M 605.10 108.10 L 585.10 108.10 L 585.10 88.10 L 584.90 86.30 L 584.20 84.70 L 583.20 83.40 L 581.90 82.30 L 580.30 81.70 L 578.50 81.50 L 576.70 81.70 L 575.20 82.30 L 573.80 83.40 L 572.80 84.70 L 572.20 86.30 L 571.90 88.10 L 571.90 108.10 L 551.90 108.10 L 550.10 108.30 L 548.60 108.90 L 547.20 110.00 L 546.20 111.30 L 545.60 112.90 L 545.30 114.70 L 545.60 116.50 L 546.20 118.00 L 547.20 119.40 L 548.60 120.40 L 550.10 121.00 L 551.90 121.30 L 571.90 121.30 L 571.90 141.30 L 572.20 143.10 L 572.80 144.60 L 573.80 146.00 L 575.20 147.00 L 576.70 147.60 L 578.50 147.90 L 580.30 147.60 L 581.90 147.00 L 583.20 146.00 L 584.20 144.60 L 584.90 143.10 L 585.10 141.30 L 585.10 121.30 L 605.10 121.30 L 606.90 121.00 L 608.50 120.40 L 609.80 119.40 L 610.80 118.00 L 611.50 116.50 L 611.70 114.70 L 611.50 112.90 L 610.80 111.30 L 609.80 110.00 L 608.50 108.90 L 606.90 108.30 L 605.10 108.10 Z" fill="#f3f3f3" fill-rule="nonzero" group-id="6,8,9,14,32" node-id="110" stroke="none" target-height="66.399994" target-width="66.400024" target-x="545.3" target-y="81.5"></path></g></g><g node-id="243"><g node-id="261"><path d="M 662.70 685.10 L 647.90 685.10 L 647.60 668.70 L 647.10 667.50 L 645.10 665.50 L 642.40 664.70 L 639.60 665.50 L 637.60 667.50 L 637.10 668.70 L 636.80 685.10 L 622.00 685.10 L 619.20 685.80 L 617.20 687.80 L 616.50 690.60 L 616.70 692.10 L 617.20 693.40 L 619.20 695.40 L 622.00 696.10 L 636.80 696.10 L 637.10 712.40 L 637.60 713.70 L 639.60 715.70 L 642.40 716.50 L 645.10 715.70 L 647.10 713.70 L 647.60 712.40 L 647.90 696.10 L 662.70 696.10 L 665.50 695.40 L 667.50 693.40 L 668.20 690.60 L 667.50 687.80 L 665.50 685.80 L 662.70 685.10 Z" fill="#f3f3f3" fill-rule="nonzero" group-id="6,8,9,15,33" node-id="118" stroke="none" target-height="51.799988" target-width="51.700012" target-x="616.5" target-y="664.7"></path></g></g><g node-id="244"><g node-id="262"><path d="M 127.60 123.50 L 130.00 125.50 L 135.00 128.40 L 137.70 129.30 L 143.40 130.00 L 149.00 129.30 L 151.80 128.40 L 156.80 125.50 L 159.20 123.50 L 161.20 121.20 L 164.10 116.10 L 164.90 113.40 L 165.70 107.70 L 165.00 102.10 L 164.10 99.30 L 161.20 94.30 L 159.20 92.00 L 150.20 83.30 L 145.10 80.40 L 139.50 79.00 L 133.90 79.00 L 128.30 80.40 L 123.30 83.30 L 121.00 85.30 L 118.90 87.60 L 116.10 92.70 L 114.60 98.30 L 114.60 103.90 L 116.10 109.50 L 118.90 114.50 L 127.60 123.50 Z" fill="#f3f3f3" fill-rule="nonzero" group-id="6,8,9,16,34" node-id="126" stroke="none" target-height="51" target-width="51.1" target-x="114.6" target-y="79"></path></g></g><g node-id="245"><g node-id="263"><path d="M 242.40 115.40 L 245.30 117.50 L 248.70 118.40 L 252.10 118.10 L 253.80 117.50 L 256.70 115.40 L 258.80 112.50 L 259.70 109.10 L 259.40 105.70 L 258.80 104.00 L 256.70 101.10 L 246.70 91.00 L 243.80 89.00 L 240.40 88.10 L 237.00 88.40 L 233.80 89.90 L 232.40 91.00 L 231.20 92.50 L 229.70 95.70 L 229.40 99.10 L 230.30 102.50 L 232.40 105.40 L 242.40 115.40 Z" fill="#f3f3f3" fill-rule="nonzero" group-id="6,8,9,17,35" node-id="134" stroke="none" target-height="30.300003" target-width="30.300018" target-x="229.4" target-y="88.1"></path></g></g><g node-id="246"><g node-id="264"><path d="M 91.30 316.20 L 92.70 317.30 L 95.90 318.80 L 97.60 319.10 L 101.10 318.80 L 104.20 317.30 L 105.70 316.20 L 106.90 314.70 L 108.30 311.50 L 108.60 309.80 L 108.30 306.40 L 106.90 303.20 L 95.70 291.80 L 94.20 290.60 L 91.00 289.10 L 89.30 288.80 L 85.90 289.10 L 82.70 290.60 L 81.30 291.80 L 80.10 293.20 L 78.60 296.40 L 78.30 298.10 L 78.60 301.50 L 80.10 304.70 L 91.30 316.20 Z" fill="#f3f3f3" fill-rule="nonzero" group-id="6,8,9,18,36" node-id="142" stroke="none" target-height="30.300018" target-width="30.299995" target-x="78.3" target-y="288.8"></path></g></g><g node-id="247"><g node-id="265"><path d="M 619.30 623.60 L 616.30 621.60 L 612.90 620.70 L 609.50 621.00 L 607.80 621.60 L 604.90 623.60 L 602.80 626.60 L 601.90 630.00 L 602.20 633.40 L 602.80 635.00 L 604.90 638.00 L 614.90 648.00 L 617.80 650.10 L 621.20 651.00 L 624.60 650.70 L 627.80 649.20 L 629.30 648.00 L 630.40 646.60 L 631.90 643.40 L 632.20 640.00 L 631.30 636.60 L 629.30 633.60 L 619.30 623.60 Z" fill="#f3f3f3" fill-rule="nonzero" group-id="6,8,9,19,37" node-id="150" stroke="none" target-height="30.299988" target-width="30.299988" target-x="601.9" target-y="620.7"></path></g></g><g node-id="248"><g node-id="266"><path d="M 739.60 632.10 L 739.30 636.40 L 738.50 640.60 L 737.10 644.70 L 735.30 648.50 L 732.90 652.00 L 730.00 655.30 L 726.80 658.10 L 723.20 660.50 L 719.40 662.40 L 715.40 663.80 L 711.20 664.60 L 706.90 664.90 L 702.50 664.60 L 698.40 663.80 L 694.30 662.40 L 690.50 660.50 L 687.00 658.10 L 683.70 655.30 L 680.80 652.00 L 678.50 648.50 L 676.60 644.70 L 675.20 640.60 L 674.40 636.40 L 674.10 632.10 L 674.40 627.80 L 675.20 623.60 L 676.60 619.60 L 678.50 615.70 L 680.80 612.20 L 683.70 608.90 L 687.00 606.10 L 690.50 603.70 L 694.30 601.80 L 698.40 600.50 L 702.50 599.60 L 706.90 599.30 L 711.20 599.60 L 715.40 600.50 L 719.40 601.80 L 723.20 603.70 L 726.80 606.10 L 730.00 608.90 L 732.90 612.20 L 735.30 615.70 L 737.10 619.60 L 738.50 623.60 L 739.30 627.80 L 739.60 632.10 Z" fill="#f3f3f3" fill-rule="nonzero" group-id="6,8,9,20,38" node-id="158" stroke="none" target-height="65.60004" target-width="65.5" target-x="674.1" target-y="599.3"></path></g></g><g node-id="249"><g node-id="267"><path d="M 707.50 480.20 L 676.00 448.60 L 656.00 427.40 L 654.50 425.40 L 653.30 423.40 L 652.20 418.80 L 652.50 414.20 L 653.20 412.00 L 654.40 409.90 L 655.90 407.90 L 657.90 406.10 L 660.10 404.80 L 662.50 403.90 L 665.00 403.40 L 667.40 403.40 L 669.90 403.80 L 672.30 404.60 L 674.50 405.90 L 676.60 407.70 L 690.00 421.40 L 691.90 423.00 L 694.00 424.30 L 698.60 425.60 L 703.40 425.40 L 705.70 424.60 L 707.80 423.50 L 709.80 421.90 L 711.40 420.00 L 712.70 417.90 L 713.50 415.60 L 714.00 413.20 L 714.00 410.80 L 713.60 408.50 L 712.80 406.20 L 711.60 404.10 L 710.00 402.10 L 691.30 383.50 L 688.10 379.80 L 685.30 375.90 L 682.90 371.80 L 681.00 367.30 L 679.60 362.80 L 676.80 346.40 L 674.60 335.00 L 671.80 323.80 L 668.70 312.90 L 665.10 302.10 L 661.00 291.40 L 656.60 281.00 L 651.70 270.90 L 646.50 260.90 L 640.80 251.20 L 634.80 241.80 L 628.40 232.60 L 621.70 223.70 L 614.60 215.10 L 607.10 206.80 L 599.40 198.70 L 591.30 191.00 L 583.00 183.70 L 574.30 176.70 L 565.30 169.90 L 556.10 163.60 L 546.70 157.70 L 536.90 152.10 L 527.00 146.90 L 516.70 142.10 L 506.30 137.70 L 495.70 133.70 L 484.90 130.20 L 473.80 127.10 L 462.50 124.40 L 451.20 122.20 L 439.70 120.50 L 428.00 119.20 L 416.20 118.50 L 404.10 118.20 L 389.80 118.60 L 384.80 118.10 L 380.10 116.40 L 378.00 115.00 L 356.90 94.20 L 352.20 90.60 L 347.00 88.30 L 343.20 87.60 L 339.50 87.40 L 335.80 87.90 L 330.50 89.90 L 328.00 91.40 L 325.60 93.30 L 323.50 95.60 L 321.70 98.00 L 320.40 100.70 L 319.40 103.50 L 318.50 109.20 L 319.20 115.00 L 320.10 117.80 L 321.30 120.50 L 323.00 123.00 L 338.80 139.60 L 340.70 142.10 L 342.00 144.80 L 342.80 147.60 L 343.10 150.50 L 342.90 153.40 L 342.10 156.20 L 340.80 158.80 L 339.00 161.20 L 336.70 163.30 L 334.40 164.70 L 332.10 165.60 L 329.80 166.10 L 327.40 166.10 L 325.10 165.80 L 320.60 163.90 L 316.50 160.60 L 277.80 122.10 L 275.70 120.50 L 273.30 119.40 L 270.80 119.00 L 268.30 119.20 L 266.60 119.60 L 263.70 121.40 L 261.30 124.40 L 260.20 127.90 L 260.50 131.40 L 261.00 133.20 L 263.20 136.30 L 286.90 159.90 L 288.50 162.30 L 290.70 167.40 L 291.40 171.00 L 291.40 174.60 L 290.80 178.20 L 288.70 183.30 L 285.10 188.00 L 282.80 190.00 L 280.40 191.50 L 275.10 193.60 L 271.40 194.20 L 267.80 194.20 L 264.10 193.50 L 258.90 191.40 L 254.20 187.70 L 239.50 172.40 L 204.20 137.10 L 201.80 135.10 L 199.40 133.40 L 194.10 131.30 L 188.40 130.60 L 182.70 131.30 L 177.40 133.40 L 175.00 135.10 L 172.60 137.10 L 169.00 141.90 L 167.70 144.50 L 166.30 150.00 L 166.30 155.70 L 166.80 158.50 L 169.00 163.80 L 172.60 168.60 L 198.30 194.30 L 207.20 202.70 L 210.80 207.30 L 213.00 212.50 L 213.60 216.10 L 213.70 219.80 L 213.10 223.50 L 212.30 226.20 L 209.60 231.10 L 207.70 233.40 L 205.30 235.60 L 202.80 237.30 L 200.10 238.60 L 197.30 239.60 L 194.40 240.10 L 188.50 240.10 L 182.80 238.40 L 180.20 237.00 L 177.70 235.20 L 155.10 212.20 L 151.70 209.20 L 148.20 206.80 L 144.40 204.90 L 140.40 203.50 L 136.30 202.60 L 132.10 202.30 L 128.00 202.40 L 123.90 203.10 L 119.80 204.30 L 116.00 206.00 L 112.40 208.20 L 108.90 211.00 L 105.80 214.40 L 103.30 218.10 L 101.30 221.90 L 99.90 226.00 L 99.00 230.20 L 98.70 234.40 L 98.90 238.70 L 99.70 242.90 L 101.00 247.00 L 102.80 250.90 L 105.30 254.60 L 108.30 258.00 L 163.40 312.90 L 165.40 315.30 L 166.90 317.90 L 167.80 320.70 L 168.30 323.60 L 168.20 326.40 L 167.60 329.30 L 166.60 332.00 L 165.00 334.50 L 162.90 336.90 L 160.60 338.70 L 158.10 340.00 L 155.40 340.80 L 152.70 341.20 L 150.00 341.10 L 147.20 340.60 L 144.60 339.60 L 142.20 338.20 L 140.00 336.20 L 126.50 322.60 L 125.10 321.40 L 121.90 319.90 L 120.20 319.60 L 116.70 319.90 L 113.50 321.40 L 112.10 322.60 L 110.60 324.10 L 109.60 325.70 L 109.00 327.40 L 108.90 330.80 L 109.40 332.50 L 110.50 334.90 L 112.20 337.00 L 130.00 354.80 L 167.00 390.90 L 168.90 393.20 L 170.30 395.60 L 171.20 398.20 L 171.70 400.90 L 171.70 403.60 L 171.20 406.30 L 170.30 408.90 L 168.90 411.40 L 167.00 413.60 L 164.80 415.50 L 162.40 416.80 L 159.90 417.70 L 157.20 418.20 L 154.50 418.20 L 151.90 417.70 L 149.30 416.90 L 146.90 415.50 L 144.70 413.70 L 101.10 370.50 L 99.10 368.90 L 97.00 367.60 L 94.70 366.80 L 92.40 366.30 L 87.60 366.60 L 85.40 367.30 L 83.20 368.40 L 81.30 370.00 L 79.60 372.00 L 78.30 374.10 L 77.50 376.30 L 77.10 378.70 L 77.00 381.10 L 77.40 383.50 L 78.20 385.70 L 79.40 387.90 L 81.10 389.80 L 125.00 433.70 L 127.40 436.60 L 129.40 439.70 L 130.80 443.20 L 134.50 459.30 L 137.60 471.50 L 141.30 483.40 L 145.50 495.10 L 150.20 506.50 L 155.50 517.80 L 161.20 528.70 L 167.30 539.30 L 173.90 549.60 L 181.00 559.60 L 188.50 569.30 L 196.40 578.60 L 204.60 587.60 L 213.30 596.20 L 222.30 604.40 L 231.70 612.20 L 241.40 619.60 L 251.50 626.60 L 261.90 633.10 L 272.60 639.20 L 283.50 644.80 L 294.70 649.90 L 306.20 654.60 L 318.00 658.70 L 330.10 662.40 L 342.20 665.40 L 354.60 667.90 L 367.20 669.90 L 380.00 671.30 L 396.70 672.50 L 400.10 673.30 L 403.50 674.40 L 406.70 676.00 L 409.60 678.00 L 412.40 680.30 L 432.70 699.60 L 437.40 703.20 L 442.60 705.50 L 446.30 706.20 L 450.10 706.40 L 453.80 705.90 L 459.10 704.00 L 461.60 702.50 L 464.00 700.60 L 466.10 698.20 L 467.90 695.80 L 469.20 693.10 L 470.20 690.40 L 471.10 684.60 L 470.40 678.80 L 468.30 673.40 L 466.60 670.80 L 464.60 668.50 L 452.50 656.00 L 450.80 653.80 L 449.70 651.50 L 448.90 649.00 L 448.60 646.50 L 448.80 644.00 L 449.40 641.50 L 450.40 639.20 L 451.80 637.00 L 453.70 635.10 L 455.80 633.50 L 458.00 632.50 L 460.40 631.80 L 462.80 631.60 L 465.20 631.70 L 467.60 632.20 L 469.80 633.10 L 471.90 634.50 L 494.10 657.40 L 516.10 679.40 L 518.50 681.50 L 521.00 683.10 L 526.50 685.30 L 529.30 685.80 L 535.10 685.70 L 540.80 684.10 L 543.40 682.70 L 545.90 681.00 L 548.20 678.80 L 550.10 676.50 L 551.60 674.00 L 553.50 668.70 L 554.00 664.90 L 553.90 661.20 L 553.10 657.50 L 552.20 654.80 L 549.20 649.80 L 530.90 630.90 L 528.80 628.50 L 527.10 625.90 L 525.80 623.10 L 524.40 617.30 L 524.50 611.30 L 525.20 608.40 L 527.60 602.80 L 529.40 600.30 L 531.60 597.90 L 534.40 595.50 L 537.00 593.90 L 542.40 591.80 L 546.20 591.20 L 550.00 591.20 L 553.80 591.80 L 559.20 594.00 L 561.70 595.60 L 564.10 597.60 L 583.80 616.90 L 585.90 618.60 L 588.30 619.60 L 590.80 620.10 L 593.30 619.90 L 596.50 618.70 L 599.30 616.20 L 600.30 614.60 L 601.40 611.20 L 601.10 607.60 L 599.70 604.30 L 593.30 597.60 L 590.70 595.60 L 584.80 590.00 L 568.50 573.40 L 560.70 565.30 L 558.20 561.70 L 557.20 557.50 L 557.70 553.40 L 558.50 551.40 L 561.10 547.80 L 564.70 545.40 L 566.80 544.80 L 570.90 544.50 L 575.00 545.70 L 576.80 546.80 L 609.60 581.10 L 623.70 595.30 L 627.10 598.20 L 630.60 600.60 L 634.40 602.50 L 638.40 603.90 L 642.50 604.80 L 646.70 605.20 L 650.80 605.00 L 654.90 604.40 L 659.00 603.20 L 662.80 601.50 L 666.40 599.20 L 669.90 596.40 L 673.00 593.00 L 675.50 589.40 L 677.50 585.50 L 678.90 581.40 L 679.80 577.30 L 680.10 573.00 L 679.90 568.80 L 679.10 564.60 L 677.80 560.50 L 676.00 556.60 L 673.50 552.90 L 670.50 549.40 L 648.00 526.90 L 636.60 514.40 L 634.90 512.30 L 633.70 510.00 L 632.90 507.50 L 632.60 505.00 L 632.60 502.50 L 633.10 500.00 L 634.00 497.60 L 635.30 495.40 L 637.10 493.30 L 639.30 491.60 L 641.70 490.30 L 644.20 489.50 L 646.80 489.10 L 649.40 489.20 L 652.00 489.70 L 654.40 490.70 L 656.70 492.10 L 676.40 512.00 L 678.70 514.10 L 681.20 515.70 L 683.90 517.00 L 689.60 518.40 L 695.40 518.30 L 698.20 517.70 L 703.70 515.30 L 706.10 513.60 L 708.40 511.40 L 711.80 506.60 L 713.80 501.30 L 714.30 497.60 L 714.10 493.80 L 713.40 490.10 L 711.10 484.90 L 707.50 480.20 Z" fill="#f3f3f3" fill-rule="nonzero" group-id="6,8,9,21,39" node-id="166" stroke="none" target-height="619" target-width="637.3" target-x="77" target-y="87.4"></path></g></g><g node-id="250"><g node-id="268"><path d="M 435.00 199.20 L 420.20 199.20 L 420.00 182.80 L 419.40 181.60 L 417.40 179.60 L 414.70 178.80 L 411.90 179.60 L 409.90 181.60 L 409.40 182.80 L 409.20 199.20 L 394.30 199.20 L 391.50 199.90 L 389.50 201.90 L 388.80 204.70 L 389.00 206.20 L 389.50 207.50 L 391.50 209.50 L 394.30 210.20 L 409.20 210.20 L 409.40 226.50 L 409.90 227.80 L 411.90 229.80 L 414.70 230.60 L 417.40 229.80 L 419.40 227.80 L 420.00 226.50 L 420.20 210.20 L 435.00 210.20 L 437.80 209.50 L 439.80 207.50 L 440.50 204.70 L 439.80 201.90 L 437.80 199.90 L 435.00 199.20 Z" fill="#ffffff" fill-rule="nonzero" group-id="6,8,9,22,40" node-id="174" stroke="none" target-height="51.800003" target-width="51.700012" target-x="388.8" target-y="178.8"></path></g></g><g node-id="251"><g node-id="269"><path d="M 590.80 417.70 L 588.30 417.50 L 586.10 416.90 L 584.00 415.90 L 580.50 413.00 L 578.20 409.00 L 577.60 406.80 L 577.40 404.30 L 577.60 401.90 L 578.20 399.70 L 580.50 395.70 L 584.00 392.80 L 586.10 391.80 L 588.30 391.20 L 590.80 391.00 L 593.20 391.20 L 595.40 391.80 L 599.40 394.10 L 602.30 397.60 L 603.30 399.70 L 603.90 401.90 L 604.10 404.30 L 603.90 406.80 L 603.30 409.00 L 601.00 413.00 L 597.50 415.90 L 595.40 416.90 L 593.20 417.50 L 590.80 417.70 Z M 590.80 397.40 L 588.90 397.60 L 587.30 398.30 L 585.80 399.40 L 584.80 400.80 L 584.10 402.50 L 583.80 404.30 L 584.10 406.20 L 584.80 407.80 L 585.80 409.20 L 587.30 410.30 L 588.90 411.00 L 590.80 411.30 L 592.60 411.00 L 594.30 410.30 L 595.70 409.20 L 596.80 407.80 L 597.50 406.20 L 597.70 404.30 L 597.50 402.50 L 596.80 400.80 L 595.70 399.40 L 594.30 398.30 L 592.60 397.60 L 590.80 397.40 Z" fill="#ffffff" fill-rule="nonzero" group-id="6,8,9,23,41" node-id="182" stroke="none" target-height="26.700012" target-width="26.699951" target-x="577.4" target-y="391"></path></g></g><path d="M 228.10 519.80 L 225.70 519.50 L 223.40 518.90 L 221.40 517.90 L 217.90 515.00 L 215.60 511.00 L 215.00 508.80 L 214.70 506.40 L 215.00 503.90 L 215.60 501.70 L 217.90 497.70 L 221.40 494.80 L 223.40 493.80 L 225.70 493.20 L 228.10 493.00 L 230.50 493.20 L 232.80 493.80 L 236.70 496.10 L 239.70 499.60 L 240.70 501.70 L 241.30 503.90 L 241.50 506.40 L 241.30 508.80 L 240.70 511.00 L 238.30 515.00 L 234.90 517.90 L 232.80 518.90 L 230.50 519.50 L 228.10 519.80 Z M 228.10 499.40 L 226.30 499.70 L 224.60 500.40 L 223.20 501.50 L 222.10 502.90 L 221.40 504.50 L 221.20 506.40 L 221.40 508.20 L 222.10 509.90 L 223.20 511.30 L 224.60 512.40 L 226.30 513.10 L 228.10 513.30 L 230.00 513.10 L 231.60 512.40 L 233.00 511.30 L 234.10 509.90 L 234.80 508.20 L 235.10 506.40 L 234.80 504.50 L 234.10 502.90 L 233.00 501.50 L 231.60 500.40 L 230.00 499.70 L 228.10 499.40 Z" fill="#ffffff" fill-rule="nonzero" group-id="6,8,9,24,42" node-id="190" stroke="none" target-height="26.799988" target-width="26.800003" target-x="214.7" target-y="493"></path></g><g node-id="238"><g node-id="253"><g node-id="271"><path d="M 532.30 544.40 L 301.30 544.40 L 296.30 544.20 L 291.50 543.40 L 286.90 542.30 L 282.50 540.70 L 278.30 538.60 L 274.30 536.20 L 270.60 533.50 L 267.20 530.30 L 264.10 526.90 L 261.30 523.20 L 258.90 519.30 L 256.90 515.00 L 255.30 510.60 L 254.10 506.10 L 253.40 501.30 L 253.10 496.30 L 253.10 306.20 L 253.40 301.20 L 254.10 296.50 L 255.30 291.90 L 256.90 287.50 L 258.90 283.20 L 261.30 279.30 L 264.10 275.60 L 267.20 272.20 L 270.60 269.10 L 274.30 266.30 L 278.30 263.90 L 282.50 261.90 L 286.90 260.20 L 291.50 259.10 L 296.30 258.30 L 301.30 258.10 L 532.30 258.10 L 537.30 258.30 L 542.00 259.10 L 546.60 260.20 L 551.00 261.90 L 555.30 263.90 L 559.20 266.30 L 562.90 269.10 L 566.30 272.20 L 569.40 275.60 L 572.20 279.30 L 574.60 283.20 L 576.60 287.50 L 578.30 291.90 L 579.40 296.50 L 580.20 301.20 L 580.40 306.20 L 580.40 496.30 L 580.20 501.30 L 579.40 506.10 L 578.30 510.60 L 576.60 515.00 L 574.60 519.30 L 572.20 523.20 L 569.40 526.90 L 566.30 530.30 L 562.90 533.50 L 559.20 536.20 L 555.20 538.60 L 551.00 540.70 L 546.60 542.30 L 542.00 543.40 L 537.30 544.20 L 532.30 544.40 Z" fill="#ffffff" fill-rule="nonzero" group-id="6,8,10,25,43" node-id="201" stroke="none" target-height="286.30002" target-width="327.30002" target-x="253.1" target-y="258.1"></path></g></g><g node-id="254"><g node-id="272"><path d="M 532.30 547.40 L 301.30 547.40 L 295.90 547.20 L 290.90 546.40 L 286.00 545.10 L 281.40 543.40 L 276.90 541.20 L 272.70 538.70 L 268.70 535.80 L 265.10 532.40 L 261.80 528.80 L 258.90 524.90 L 256.30 520.70 L 254.10 516.20 L 252.40 511.50 L 251.20 506.70 L 250.40 501.60 L 250.10 496.30 L 250.10 306.20 L 250.40 300.90 L 251.20 295.90 L 252.40 291.00 L 254.10 286.30 L 256.30 281.80 L 258.90 277.60 L 261.80 273.70 L 265.10 270.10 L 268.70 266.80 L 272.70 263.80 L 276.90 261.30 L 281.40 259.10 L 286.00 257.40 L 290.90 256.10 L 295.90 255.40 L 301.30 255.10 L 532.30 255.10 L 537.60 255.40 L 542.60 256.10 L 547.50 257.40 L 552.20 259.10 L 556.70 261.30 L 560.90 263.80 L 564.80 266.80 L 568.40 270.10 L 571.70 273.70 L 574.70 277.60 L 577.20 281.80 L 579.40 286.30 L 581.10 291.00 L 582.40 295.90 L 583.10 300.90 L 583.40 306.20 L 583.40 496.30 L 583.10 501.60 L 582.40 506.70 L 581.10 511.50 L 579.40 516.20 L 577.20 520.70 L 574.70 524.90 L 571.70 528.80 L 568.40 532.40 L 564.80 535.80 L 560.90 538.70 L 556.70 541.20 L 552.20 543.40 L 547.50 545.10 L 542.60 546.40 L 537.60 547.20 L 532.30 547.40 Z M 301.30 261.10 L 296.60 261.30 L 292.10 262.00 L 287.80 263.10 L 283.70 264.60 L 279.70 266.60 L 276.00 268.80 L 272.60 271.40 L 269.30 274.30 L 266.40 277.50 L 263.80 281.00 L 261.60 284.70 L 259.70 288.70 L 258.10 292.80 L 257.00 297.10 L 256.40 301.60 L 256.10 306.20 L 256.10 496.30 L 256.40 501.00 L 257.00 505.40 L 258.10 509.70 L 259.70 513.90 L 261.60 517.80 L 263.80 521.50 L 266.40 525.00 L 269.30 528.20 L 272.60 531.10 L 276.00 533.70 L 279.70 536.00 L 283.70 537.90 L 287.80 539.40 L 292.10 540.50 L 296.60 541.20 L 301.30 541.50 L 532.30 541.50 L 536.90 541.20 L 541.40 540.50 L 545.70 539.40 L 549.80 537.90 L 553.80 536.00 L 557.50 533.70 L 561.00 531.10 L 564.20 528.20 L 567.10 525.00 L 569.70 521.50 L 571.90 517.80 L 573.90 513.90 L 575.40 509.70 L 576.50 505.50 L 577.20 501.00 L 577.40 496.30 L 577.40 306.20 L 577.20 301.60 L 576.50 297.10 L 575.40 292.80 L 573.90 288.70 L 571.90 284.70 L 569.70 281.00 L 567.10 277.50 L 564.20 274.30 L 561.00 271.40 L 557.50 268.80 L 553.80 266.60 L 549.80 264.60 L 545.70 263.10 L 541.40 262.00 L 537.00 261.30 L 532.30 261.10 L 301.30 261.10 Z" fill="#838383" fill-rule="nonzero" group-id="6,8,10,26,44" node-id="209" stroke="none" target-height="292.30002" target-width="333.30002" target-x="250.1" target-y="255.1"></path></g></g><g node-id="255"><g node-id="273"><path d="M 384.80 498.60 L 379.80 498.40 L 370.40 497.00 L 365.90 495.70 L 360.00 493.50 L 354.50 490.90 L 349.40 487.70 L 344.60 484.00 L 340.30 479.90 L 336.40 475.40 L 333.00 470.50 L 330.20 465.30 L 327.90 459.80 L 325.60 451.20 L 324.80 442.00 L 325.00 437.30 L 326.60 428.30 L 327.90 424.10 L 330.20 418.60 L 333.00 413.40 L 336.40 408.50 L 340.30 404.00 L 344.60 399.90 L 349.40 396.20 L 354.50 393.00 L 360.00 390.40 L 365.90 388.20 L 375.00 386.00 L 384.80 385.30 L 389.90 385.50 L 395.00 386.10 L 383.70 345.00 L 383.10 341.70 L 382.90 338.40 L 383.20 335.10 L 383.90 331.80 L 385.10 328.70 L 386.80 325.80 L 388.90 323.10 L 391.30 320.80 L 393.90 318.80 L 396.90 317.30 L 400.00 316.20 L 403.30 315.50 L 436.30 311.20 L 440.80 311.80 L 445.00 313.50 L 448.70 316.40 L 451.40 320.00 L 453.20 324.20 L 453.60 326.50 L 453.80 329.70 L 453.40 332.70 L 452.40 335.50 L 451.00 338.20 L 449.20 340.50 L 447.00 342.60 L 444.50 344.20 L 441.70 345.40 L 438.60 346.10 L 421.00 348.40 L 443.90 432.30 L 444.60 437.10 L 444.80 442.00 L 444.60 446.60 L 443.00 455.60 L 441.70 459.80 L 439.40 465.30 L 436.60 470.50 L 433.20 475.40 L 429.30 479.90 L 425.00 484.00 L 420.20 487.70 L 415.10 490.90 L 409.60 493.50 L 403.70 495.70 L 394.60 497.90 L 384.80 498.60 Z M 384.80 391.30 L 379.20 391.60 L 373.90 392.30 L 368.70 393.60 L 363.80 395.30 L 359.00 397.40 L 354.60 400.00 L 350.50 402.90 L 346.70 406.10 L 343.10 409.80 L 340.00 413.70 L 337.40 417.80 L 335.10 422.30 L 333.20 426.90 L 331.90 431.70 L 331.10 436.70 L 330.80 442.00 L 331.10 447.20 L 331.90 452.20 L 333.20 457.00 L 335.10 461.70 L 337.40 466.10 L 340.00 470.30 L 343.10 474.10 L 346.70 477.80 L 350.50 481.00 L 354.60 483.90 L 359.00 486.50 L 363.80 488.60 L 368.70 490.30 L 373.90 491.60 L 379.20 492.30 L 384.80 492.60 L 390.40 492.30 L 395.80 491.60 L 400.90 490.30 L 405.80 488.60 L 410.60 486.50 L 415.00 483.90 L 419.10 481.00 L 423.00 477.80 L 426.50 474.10 L 429.60 470.30 L 432.30 466.10 L 434.60 461.70 L 436.40 457.00 L 437.70 452.20 L 438.50 447.20 L 438.80 442.00 L 438.00 433.30 L 414.30 346.70 L 414.20 345.40 L 414.70 344.30 L 415.60 343.40 L 416.80 343.00 L 437.80 340.20 L 441.70 338.90 L 443.30 337.80 L 446.00 334.90 L 447.50 331.30 L 447.80 329.30 L 447.70 327.20 L 447.20 325.00 L 446.20 323.00 L 444.90 321.20 L 443.30 319.60 L 441.30 318.40 L 439.20 317.60 L 437.00 317.30 L 434.80 317.40 L 401.60 321.90 L 397.10 323.90 L 393.40 327.10 L 391.80 329.10 L 389.70 333.60 L 388.90 338.50 L 389.00 340.90 L 402.10 390.30 L 401.30 392.10 L 399.20 393.00 L 389.40 391.50 L 384.80 391.30 Z M 384.80 469.60 L 380.60 469.30 L 376.50 468.60 L 372.80 467.40 L 369.10 465.80 L 365.90 463.80 L 362.90 461.50 L 360.30 458.80 L 358.10 455.90 L 356.30 452.70 L 354.90 449.30 L 354.10 445.70 L 353.80 442.00 L 354.10 438.20 L 354.90 434.60 L 356.30 431.20 L 358.10 428.00 L 360.30 425.10 L 362.90 422.40 L 365.90 420.10 L 369.10 418.10 L 372.80 416.50 L 376.50 415.30 L 380.60 414.60 L 384.80 414.30 L 389.10 414.60 L 393.10 415.30 L 396.90 416.50 L 400.60 418.10 L 403.90 420.10 L 406.90 422.60 L 409.60 425.30 L 411.80 428.40 L 413.80 432.20 L 415.20 436.60 L 415.60 439.30 L 415.80 442.00 L 415.50 445.70 L 414.70 449.30 L 413.30 452.70 L 411.50 455.90 L 409.30 458.80 L 406.70 461.50 L 403.70 463.80 L 400.50 465.80 L 396.90 467.40 L 393.10 468.60 L 389.10 469.30 L 384.80 469.60 Z M 384.80 420.30 L 381.40 420.50 L 375.10 422.00 L 372.20 423.30 L 367.20 426.70 L 365.00 428.80 L 361.80 433.50 L 360.70 436.20 L 360.10 439.00 L 359.80 442.00 L 360.10 444.90 L 360.70 447.70 L 361.80 450.40 L 365.00 455.20 L 367.20 457.30 L 372.20 460.60 L 378.10 462.80 L 381.40 463.40 L 384.80 463.60 L 391.50 462.80 L 394.50 461.90 L 400.10 459.10 L 404.60 455.20 L 407.80 450.40 L 408.90 447.70 L 409.50 444.90 L 409.80 442.00 L 409.40 438.20 L 408.00 434.00 L 406.60 431.40 L 404.80 429.00 L 402.60 426.80 L 397.50 423.30 L 394.50 422.00 L 388.20 420.50 L 384.80 420.30 Z" fill="#838383" fill-rule="nonzero" group-id="6,8,10,27,45" node-id="217" stroke="none" target-height="187.4" target-width="129" target-x="324.8" target-y="311.2"></path></g></g><path d="M 496.30 446.40 L 493.00 446.20 L 489.90 445.60 L 486.90 444.50 L 484.10 443.10 L 479.30 439.30 L 475.50 434.50 L 474.10 431.70 L 473.00 428.70 L 472.40 425.60 L 472.20 422.30 L 472.40 418.90 L 473.00 415.80 L 474.10 412.90 L 475.50 410.10 L 479.30 405.20 L 484.10 401.40 L 486.90 400.00 L 489.90 399.00 L 493.00 398.30 L 496.30 398.10 L 499.60 398.30 L 502.80 399.00 L 505.70 400.00 L 508.50 401.40 L 513.40 405.20 L 517.20 410.10 L 518.60 412.90 L 519.60 415.80 L 520.30 418.90 L 520.50 422.30 L 520.30 425.60 L 519.60 428.70 L 518.60 431.70 L 517.20 434.50 L 515.50 437.00 L 513.40 439.30 L 508.50 443.10 L 505.70 444.50 L 502.80 445.60 L 499.60 446.20 L 496.30 446.40 Z M 496.30 404.10 L 493.00 404.40 L 490.00 405.20 L 487.20 406.60 L 484.60 408.40 L 482.50 410.60 L 480.70 413.10 L 479.30 415.90 L 478.50 419.00 L 478.20 422.30 L 478.50 425.60 L 479.30 428.60 L 480.70 431.40 L 482.50 434.00 L 484.60 436.10 L 487.20 437.90 L 490.00 439.30 L 493.00 440.10 L 496.30 440.40 L 499.60 440.10 L 502.70 439.30 L 505.50 437.90 L 508.00 436.10 L 510.20 434.00 L 512.00 431.40 L 513.40 428.60 L 514.20 425.60 L 514.50 422.30 L 514.20 419.00 L 513.40 415.90 L 512.00 413.10 L 510.20 410.60 L 508.00 408.40 L 505.50 406.60 L 502.70 405.20 L 499.60 404.40 L 496.30 404.10 Z M 496.30 433.50 L 492.40 432.80 L 490.60 432.00 L 487.70 429.50 L 485.80 426.20 L 485.10 422.30 L 485.80 418.30 L 487.70 415.00 L 490.60 412.50 L 494.30 411.20 L 498.40 411.20 L 500.30 411.70 L 503.60 413.70 L 506.10 416.60 L 506.90 418.30 L 507.60 422.30 L 506.90 426.20 L 504.90 429.50 L 502.00 432.00 L 500.30 432.80 L 496.30 433.50 Z M 496.30 417.00 L 494.90 417.20 L 492.60 418.50 L 491.30 420.80 L 491.10 422.30 L 491.80 424.90 L 493.70 426.80 L 494.90 427.30 L 496.30 427.50 L 499.00 426.80 L 500.90 424.90 L 501.60 422.30 L 501.40 420.80 L 500.10 418.50 L 497.80 417.20 L 496.30 417.00 Z" fill="#838383" fill-rule="nonzero" group-id="6,8,10,28,46,47" node-id="227" stroke="none" target-height="48.299988" target-width="48.299988" target-x="472.2" target-y="398.1"></path></g></g></g></svg>