<?xml version="1.0" standalone="no"?><!DOCTYPE svg PUBLIC "-//W3C//DTD SVG 1.1//EN" "http://www.w3.org/Graphics/SVG/1.1/DTD/svg11.dtd"><svg t="1723390082689" class="icon" viewBox="0 0 2115 1024" version="1.1" xmlns="http://www.w3.org/2000/svg" p-id="2495" data-spm-anchor-id="a313x.search_index.0.i4.174c3a81F3QNYx" xmlns:xlink="http://www.w3.org/1999/xlink" width="413.0859375" height="200"><path d="M213.508916 331.500686H85.684499l-16.855967 68.828532c-2.809328 12.641975-5.618656 23.879287-5.618655 30.902606 0 12.641975 7.02332 16.855967 28.093278 16.855967v23.879287H0v-23.879287c18.260631 0 25.283951-7.02332 33.711934-35.116598L143.27572 11.237311H182.60631l119.396433 393.305899c11.237311 36.521262 16.855967 43.544582 36.521262 43.544581v23.879287h-126.419753v-23.879287c21.069959 0 28.093278-4.213992 28.093279-16.855967 0-5.618656-1.404664-14.046639-4.213992-23.879286l-22.474623-75.851852z m-8.427983-30.902606L147.489712 102.540466h-1.404664L94.112483 300.59808h110.96845zM464.943759 207.890261c25.283951-35.116598 43.544582-50.567901 71.63786-50.567902 28.093278 0 49.163237 23.879287 49.163237 50.567902 0 18.260631-8.427984 30.902606-22.474623 30.902606-11.237311 0-19.665295-7.02332-25.28395-23.879287-5.618656-16.855967-9.832647-23.879287-19.665295-23.879286-16.855967 0-32.30727 19.665295-51.972566 51.972565v160.131687c0 40.735254 4.213992 47.758573 39.33059 47.758573v21.069959h-134.847736v-21.069959c30.902606 0 33.711934-4.213992 33.711934-47.758573v-154.513032c0-39.33059-2.809328-43.544582-33.711934-43.544581v-19.665295c28.093278-4.213992 57.591221-12.641975 85.684499-29.497943l7.02332 4.213992 1.404664 47.758574zM615.242798 189.62963v-19.665295c42.139918-4.213992 63.209877-32.30727 78.66118-96.921811h18.260631v91.303155h68.828532v25.283951h-68.828532v205.080932c0 36.521262 9.832647 51.972565 30.902606 51.972566 14.046639 0 26.688615-5.618656 39.33059-16.855968l11.237312 19.665295c-18.260631 16.855967-39.33059 26.688615-70.233197 26.688615-37.925926 0-73.042524-16.855967-73.042524-81.470508V189.62963h-35.116598zM1223.462277 185.415638c-14.046639 0-19.665295 4.213992-26.688614 30.902606L1122.326475 477.585734h-36.521262L1025.404664 252.839506h-1.404664l-63.209877 224.746228h-36.521262l-77.256515-250.030178c-12.641975-40.735254-16.855967-43.544582-33.711934-43.544582v-21.069959h110.968449v21.069959c-16.855967 0-23.879287 2.809328-23.879286 14.046639 0 5.618656 1.404664 12.641975 4.213992 22.474623L955.171468 397.51989h1.404664l51.972565-189.629629-2.809328-11.237312c-2.809328-8.427984-8.427984-9.832647-26.688615-9.832647v-21.069959h109.563786v21.069959c-16.855967 0-23.879287 2.809328-23.879286 12.641975 0 4.213992 1.404664 11.237311 2.809328 19.665295l49.163237 179.796982h1.404664L1170.085048 210.699588c1.404664-4.213992 2.809328-8.427984 2.809328-11.237311 0-9.832647-7.02332-12.641975-23.879287-12.641975v-21.069959h74.447188v19.665295zM1259.983539 314.644719c0-91.303155 39.33059-158.727023 133.443073-158.727024 101.135802 0 133.443073 75.851852 133.443072 158.727024 0 60.400549-14.046639 101.135802-36.521262 125.015089-23.879287 25.283951-56.186557 36.521262-96.92181 36.521262-78.66118 1.404664-133.443073-43.544582-133.443073-161.536351z m64.614541 2.809328c0 60.400549 9.832647 136.252401 67.423868 136.2524 53.377229 0 67.423868-63.209877 67.423868-136.2524 0-68.828532-11.237311-136.252401-67.423868-136.252401-57.591221 0-67.423868 74.447188-67.423868 136.252401zM1668.740741 207.890261c25.283951-35.116598 43.544582-50.567901 71.63786-50.567902 28.093278 0 49.163237 23.879287 49.163237 50.567902 0 18.260631-8.427984 30.902606-22.474623 30.902606-11.237311 0-19.665295-7.02332-25.28395-23.879287-5.618656-16.855967-9.832647-23.879287-19.665295-23.879286-16.855967 0-32.30727 19.665295-51.972565 51.972565v160.131687c0 40.735254 4.213992 47.758573 39.33059 47.758573v21.069959h-134.847737v-21.069959c30.902606 0 33.711934-4.213992 33.711934-47.758573v-154.513032c0-39.33059-2.809328-43.544582-33.711934-43.544581v-19.665295c28.093278-4.213992 57.591221-12.641975 85.684499-29.497943l7.02332 4.213992 1.404664 47.758574zM1917.366255 300.59808l77.256516-85.6845c7.02332-8.427984 12.641975-14.046639 12.641975-19.665295 0-5.618656-7.02332-8.427984-21.069959-8.427983v-21.069959h98.326475v21.069959c-16.855967 0-28.093278 4.213992-42.139918 19.665295l-56.186557 61.805212 82.875172 153.108368c12.641975 25.283951 25.283951 28.093278 43.544581 28.093278v21.069959h-87.089163l-84.279835-160.131687-25.283951 30.902606v60.400549c0 40.735254 2.809328 47.758573 30.902607 47.758573v21.069959h-126.419754V449.492455c32.30727 0 33.711934-7.02332 33.711935-47.758573V95.517147c0-39.33059-2.809328-46.353909-33.711935-46.35391V29.497942c28.093278-4.213992 58.995885-12.641975 88.493828-29.497942l7.023319 4.213992v296.384088z" fill="#221814" p-id="2496"></path><path d="M245.816187 705.141289c0 12.641975 0 23.879287 1.404663 35.116599l-22.474622 12.641975v-47.758574h-78.66118v40.735254l-22.474623 12.641976c1.404664-14.046639 1.404664-30.902606 1.404664-53.37723H67.423868c-12.641975 0-25.283951 1.404664-36.521262 5.618656l-14.046639-15.451303h108.159122c0-28.093278 0-50.567901-1.404664-67.423868l37.925926 18.260631-15.451303 11.237311v37.925926H224.746228c0-25.283951 0-46.353909-1.404664-64.61454l36.521262 16.855967-14.046639 11.237311v35.116598h56.186556l23.879287-25.283951 30.902606 35.116599h-110.968449zM56.186557 775.374486h182.60631l19.665295-21.069959 25.28395 32.30727c-9.832647 1.404664-22.474623 5.618656-35.116598 15.451303-14.046639 8.427984-40.735254 28.093278-81.470507 57.591221C126.419753 890.556927 101.135802 913.03155 91.303155 928.482853c-9.832647 15.451303-11.237311 28.093278-4.213992 35.116598 7.02332 8.427984 18.260631 11.237311 33.711934 11.237312H294.979424c12.641975 0 21.069959-9.832647 22.474623-30.902607 1.404664-21.069959 4.213992-42.139918 4.213991-61.805212h7.02332c0 21.069959 1.404664 39.33059 4.213992 57.591221 2.809328 18.260631 9.832647 28.093278 21.069959 29.497942-12.641975 19.665295-28.093278 28.093278-49.163238 26.688615H112.373114c-23.879287 0-39.33059-7.02332-49.163237-22.474623-8.427984-14.046639-8.427984-30.902606 2.809327-49.163238 11.237311-18.260631 33.711934-40.735254 68.828533-66.019204 33.711934-26.688615 67.423868-50.567901 98.326474-73.042524h-126.419753c-12.641975 0-25.283951 1.404664-36.521262 5.618656l-14.046639-15.451303zM563.270233 740.257888c0-32.30727 0-71.63786-1.404664-117.99177l40.735254 21.069959-16.855967 11.237311v85.6845h105.349794l22.474623-25.283951 32.30727 35.116598H599.791495c28.093278 95.517147 78.66118 155.917695 151.703704 182.60631v7.02332c-19.665295 2.809328-32.30727 9.832647-36.521262 22.474622-66.019204-51.972565-106.754458-122.205761-122.205761-210.699588h-5.618656c0 151.703704 0 238.792867 1.404664 258.458162l-25.283951 14.046639c1.404664-58.995885 1.404664-139.061728 1.404664-241.602195-42.139918 87.089163-95.517147 153.108368-160.131687 195.248286l-2.809328-5.618656c61.805213-51.972565 112.373114-126.419753 150.29904-220.532236h-95.517147c-12.641975 0-25.283951 1.404664-36.521262 5.618656l-14.046639-15.451304h157.322359z m58.995885-88.493828l2.809328-5.618655c26.688615 9.832647 44.949246 19.665295 54.781893 26.688614 11.237311 8.427984 12.641975 19.665295 7.023319 35.116598s-12.641975 15.451303-21.069958-1.404664c-5.618656-15.451303-21.069959-33.711934-43.544582-54.781893zM935.506173 854.035665c0 61.805213 0 106.754458 1.404664 134.847737l-22.474623 11.237311v-35.116598h-74.447188v37.925926l-23.879287 8.427984c1.404664-28.093278 1.404664-60.400549 1.404664-98.326475 0-36.521262 0-67.423868-1.404664-92.707819l22.474623 15.451303h71.63786l12.641976-16.855967 23.879286 23.879287-11.237311 11.237311z m-95.517147-7.023319v106.754458h74.447188v-106.754458h-74.447188z m207.890261-184.010974c0 56.186557 0 98.326475 1.404664 127.824417l-22.474623 9.832647v-25.28395h-126.419753v22.474622l-22.474623 8.427984c1.404664-36.521262 1.404664-68.828532 1.404664-95.517147 0-28.093278 0-53.377229-1.404664-77.256516l23.879287 15.451304h120.801097l12.641975-16.855968 23.879287 22.474623-11.237311 8.427984z m-147.489712-5.618656v106.754458h126.419753v-106.754458h-126.419753z m206.485596 193.843621c0 81.470508 0 127.824417 1.404664 139.061729l-22.474622 9.832647v-37.925926h-78.66118v32.307271l-23.879287 12.641975c1.404664-26.688615 1.404664-57.591221 1.404664-94.112483 0-36.521262 0-67.423868-1.404664-94.112483l22.474623 16.855967H1081.591221l12.641975-16.855967 23.879287 22.474623-11.237312 9.832647z m-101.135802-4.213991v106.754458h78.66118v-106.754458h-78.66118z" fill="#221814" p-id="2497"></path></svg>