<?xml version="1.0" standalone="no"?><!DOCTYPE svg PUBLIC "-//W3C//DTD SVG 1.1//EN" "http://www.w3.org/Graphics/SVG/1.1/DTD/svg11.dtd"><svg t="1723513993279" class="icon" viewBox="0 0 1024 1024" version="1.1" xmlns="http://www.w3.org/2000/svg" p-id="6195" xmlns:xlink="http://www.w3.org/1999/xlink" width="200" height="200"><path d="M512 1024c282.773333 0 512-229.226667 512-512S794.773333 0 512 0 0 229.226667 0 512s229.226667 512 512 512z" fill="#FFF4F6" p-id="6196"></path><path d="M767.957333 292.373333a12.074667 12.074667 0 0 0 0-2.218666 14.037333 14.037333 0 0 0 0-2.346667 9.792 9.792 0 0 0-1.109333-2.773333 10.666667 10.666667 0 0 0-0.981333-2.24 19.882667 19.882667 0 0 0-1.664-1.813334l-2.090667-1.92h-1.792a9.685333 9.685333 0 0 0-3.754667-1.685333 11.690667 11.690667 0 0 0-2.218666 0 13.610667 13.610667 0 0 0-2.346667 0l-332.266667 57.728a13.866667 13.866667 0 0 0-3.605333 1.386667l-1.514667 0.682666a35.690667 35.690667 0 0 0-3.754666 3.754667 10.304 10.304 0 0 0-0.832 1.792 15.189333 15.189333 0 0 0-1.237334 3.2L361.6 601.045333a83.242667 83.242667 0 1 0 17.877333 58.944l33.450667-181.44 188.117333-37.610666a14.144 14.144 0 1 0-5.546666-27.733334l-177.578667 35.52 16.085333-88.106666 303.253334-53.397334-46.592 292.288a83.221333 83.221333 0 1 0 18.154666 60.906667 1.962667 1.962667 0 0 0 0-0.853333l59.093334-367.189334zM296.277333 707.413333a55.488 55.488 0 1 1 0-110.997333 55.488 55.488 0 0 1 0 110.997333z m329.898667 0a55.488 55.488 0 1 1 21.12-4.181333c-6.741333 2.773333-13.973333 4.202667-21.269333 4.181333h0.149333z" fill="#000000" p-id="6197"></path></svg>