<?xml version="1.0" standalone="no"?><!DOCTYPE svg PUBLIC "-//W3C//DTD SVG 1.1//EN" "http://www.w3.org/Graphics/SVG/1.1/DTD/svg11.dtd"><svg t="1723516022555" class="icon" viewBox="0 0 1104 1024" version="1.1" xmlns="http://www.w3.org/2000/svg" p-id="6489" xmlns:xlink="http://www.w3.org/1999/xlink" width="215.625" height="200"><path d="M512.997 14.39c270.255 0 490.604 214.96 498.526 483.705l0.189 9.054-67.368 0.809c-2.75-236.06-194.965-426.2-431.347-426.2-238.134 0-431.239 193.105-431.239 431.32 0 238.16 193.105 431.266 431.24 431.266 203.29 0 377.37-141.582 420.97-336.735l1.914-9.027 66.048 13.285c-46.457 231.1-250.287 399.845-488.933 399.845-275.348 0-498.607-223.232-498.607-498.634 0-275.402 223.286-498.688 498.607-498.688z" fill="#515151" p-id="6490"></path><path d="M662.905 845.123L802.52 767.38a33.684 33.684 0 0 0 13.123-45.676l-46.78-85.045a33.684 33.684 0 0 0-45.892-13.205l-139.614 77.77a33.684 33.684 0 0 0-13.124 45.676l46.78 85.02a33.684 33.684 0 0 0 45.92 13.203z m-3.18-75.29L645.443 743.8l80.735-45.002 14.282 26.031-80.735 45.002z" fill="#515151" p-id="6491"></path><path d="M1067.843 483.328l31.717 59.446-317.035 169.095-31.69-59.446z m-690.31-243.416l28.025 61.279c-68.824 31.447-116.682 93.588-126.841 165.376l-0.917 7.464-67.018-6.98c10.025-96.31 70.683-179.954 158.882-223.393l7.869-3.746z" fill="#515151" p-id="6492"></path><path d="M330.887 149.747l28.268 61.17c-100.838 46.592-170.766 138.294-184.94 244.17l-1.078 8.866L106.146 457c13.554-130.694 96.094-244.304 216.28-303.21l8.46-4.042z m171.547 160.552a192.189 192.189 0 0 0-192.135 192.189 192.135 192.135 0 0 0 192.135 192.188 192.189 192.189 0 1 0 0-384.377z m0 67.368a124.82 124.82 0 1 1 0.107 249.64 124.82 124.82 0 0 1-0.107-249.64z" fill="#515151" p-id="6493"></path><path d="M502.488 458.24a44.248 44.248 0 1 0 0 88.495 44.248 44.248 0 0 0 0-88.495z m0 21.127a23.12 23.12 0 1 1 0 46.241 23.12 23.12 0 0 1 0-46.241z" fill="#515151" p-id="6494"></path></svg>