<?xml version="1.0" standalone="no"?><!DOCTYPE svg PUBLIC "-//W3C//DTD SVG 1.1//EN" "http://www.w3.org/Graphics/SVG/1.1/DTD/svg11.dtd"><svg t="1723516605265" class="icon" viewBox="0 0 1024 1024" version="1.1" xmlns="http://www.w3.org/2000/svg" p-id="6636" xmlns:xlink="http://www.w3.org/1999/xlink" width="200" height="200"><path d="M648.533333 279.893333C631.466667 122.88 501.76 0 341.333333 0 170.666667 0 34.133333 136.533333 34.133333 307.2s136.533333 307.2 307.2 307.2c37.546667 0 71.68-6.826667 102.4-17.066667v201.386667c-23.893333-27.306667-61.44-47.786667-102.4-47.786667-75.093333 0-136.533333 61.44-136.533333 136.533334s61.44 136.533333 136.533333 136.533333 136.533333-61.44 136.533334-136.533333v-303.786667c37.546667-17.066667 68.266667-40.96 95.573333-71.68L955.733333 382.293333v245.76c-23.893333-27.306667-61.44-47.786667-102.4-47.786666-75.093333 0-136.533333 61.44-136.533333 136.533333s61.44 136.533333 136.533333 136.533333 136.533333-61.44 136.533334-136.533333V163.84L648.533333 279.893333zM341.333333 989.866667c-58.026667 0-102.4-44.373333-102.4-102.4s44.373333-102.4 102.4-102.4 102.4 44.373333 102.4 102.4-44.373333 102.4-102.4 102.4z m512-170.666667c-58.026667 0-102.4-44.373333-102.4-102.4s44.373333-102.4 102.4-102.4 102.4 44.373333 102.4 102.4-44.373333 102.4-102.4 102.4zM324.266667 413.013333c-6.826667 3.413333-10.24 6.826667-17.066667 6.826667-20.48 0-34.133333-13.653333-34.133333-34.133333V228.693333c0-6.826667 0-10.24 3.413333-17.066666 10.24-17.066667 30.72-20.48 47.786667-13.653334l136.533333 78.506667c6.826667 3.413333 10.24 6.826667 13.653333 13.653333 6.826667 17.066667 3.413333 37.546667-13.653333 44.373334l-136.533333 78.506666z m631.466666-68.266666l-348.16 116.053333c23.893333-44.373333 40.96-95.573333 40.96-150.186667l307.2-102.4v136.533334z" fill="#D34747" p-id="6637"></path></svg>