<?xml version="1.0" standalone="no"?><!DOCTYPE svg PUBLIC "-//W3C//DTD SVG 1.1//EN" "http://www.w3.org/Graphics/SVG/1.1/DTD/svg11.dtd"><svg t="1723712789970" class="icon" viewBox="0 0 1024 1024" version="1.1" xmlns="http://www.w3.org/2000/svg" p-id="6140" xmlns:xlink="http://www.w3.org/1999/xlink" width="200" height="200"><path d="M1007.783 105.451H0v813.1h1024v-813.1h-16.217zM877.225 648.676v253.615H727.39V648.676h34.194v-527.01h70.142v527.01h45.499z m-684.954 0v-527.01h70.145v527.01h45.589v253.615H157.988V648.676h34.283z m155.578 0h34.192v-527.01h70.145v527.01h45.589v253.615H347.849V648.676z m189.864 0h34.192v-527.01h70.052v527.01h45.589v253.615H537.713V648.676zM16.215 121.666h56.431v527.01h45.589v253.615H16.215V121.666z m991.568 780.625h-90.624V648.676h34.194v-527.01h56.43v780.625z" fill="#040000" p-id="6141"></path></svg>