<?xml version="1.0" standalone="no"?><!DOCTYPE svg PUBLIC "-//W3C//DTD SVG 1.1//EN" "http://www.w3.org/Graphics/SVG/1.1/DTD/svg11.dtd"><svg t="1723712750501" class="icon" viewBox="0 0 1024 1024" version="1.1" xmlns="http://www.w3.org/2000/svg" p-id="5665" xmlns:xlink="http://www.w3.org/1999/xlink" width="200" height="200"><path d="M195.1 806.3l5.3 83 42.4 5.3 21.1-87.3zM451.4 806.3l3.5 83 35.4 5.3 14.1-81.3zM757.2 813.3l1.7 79.6 37.1 7 12.4-26.5v-61.8z" fill="#EDAB38" p-id="5666"></path><path d="M701.9 175.8c9.4-2.1 42.5-7.6 65.2 12.6 24.8 22.1 31.8 69.9 20.3 138.2-19.5 114.8 14 142.7 46.3 169.7 26.1 21.8 50.8 42.4 46.3 122.6H175.5l526.4-443.1z" fill="#D1E0E4" p-id="5667"></path><path d="M145.6 633.1s-5.3 123.7-1.8 130.8c3.5 7.1 17.7 31.8 17.7 31.8l22.3 10.6h652.9l26.5-12.4 19.4-19.4 12.4-44.2-1.8-95.4-747.6-1.8z" fill="#F2CA69" p-id="5668"></path><path d="M195.1 806.3s189.1-152 684-159.1l0.1-15.4-733.5 1.2-6.5 54.2 4.7 76.6 51.2 42.5z" fill="#EDAB38" p-id="5669"></path><path d="M325.3 618.9S495 392.7 636.4 397.4s160.2-33 160.2-33l9.4-132-60.3-77.4-43.8 20.9s-37.2-9.4-42 4.8C655.2 194.8 175.5 619 175.5 619h149.8z" fill="#B0C7CE" p-id="5670"></path><path d="M835.4 820.4H198c-39.5 0-71.8-32.1-72-71.5-0.5-83.3-1.7-104.9-2.3-110.5-2.1-5.3-0.9-11.3 3.1-15.3 3-3 7.1-4.4 11.1-4.1h755.3c7.8 0 14.1 6.3 14.1 14.1v115.4c0.1 39.6-32.2 71.9-71.9 71.9zM152.7 647.2c1 17.7 1.2 48.2 1.5 101.5 0.1 23.9 19.8 43.4 43.7 43.4h637.4c24.1 0 43.7-19.6 43.7-43.7V647.2H152.7z" fill="#3A4D51" p-id="5671"></path><path d="M893.3 647.2c-0.4 0-0.8 0-1.3-0.1-7.8-0.7-13.5-7.5-12.8-15.3 8-91-18-112.6-45.4-135.5-32.4-27-65.8-54.9-46.3-169.7 11.6-68.3 4.6-116.1-20.3-138.2-22.7-20.2-55.8-14.7-65.2-12.6l-556 468c-6 5-14.9 4.3-19.9-1.7-5-6-4.3-14.9 1.7-19.9l560.8-472 2.8-0.8c2.3-0.7 56-16.3 94.5 17.8 33.1 29.3 43.1 84.5 29.6 164.3-16.7 98.8 8 119.4 36.6 143.2 30.4 25.3 64.7 54 55.5 159.7-0.9 7.3-7.1 12.8-14.3 12.8z" fill="#3A4D51" p-id="5672"></path><path d="M675.4 644.6c-7.8 0-14.1-6.3-14.1-14.1v-311c0-7.8 6.3-14.1 14.1-14.1s14.1 6.3 14.1 14.1v311c0 7.8-6.3 14.1-14.1 14.1zM249.8 912H198c-7.8 0-14.1-6.3-14.1-14.1v-91.6h28.3v77.4h23.5v-76.4H264v90.6c-0.1 7.8-6.4 14.1-14.2 14.1zM504.3 912h-51.8c-7.8 0-14.1-6.3-14.1-14.1v-91.6h28.3v77.4h23.6v-76.4h28.3v90.6c-0.2 7.8-6.5 14.1-14.3 14.1zM808.4 912h-51.8c-7.8 0-14.1-6.3-14.1-14.1v-91.6h28.3v77.4h23.5v-76.4h28.3v90.6c-0.1 7.8-6.4 14.1-14.2 14.1zM128.8 310.2c5.2-1.4 10-2.8 15-4.1 4.6 10.9 13.4 17.5 23.4 22.7 4.3 2.2 8.9 4.1 13.1 6.5 4.8 2.6 9.7 5.3 14.1 8.5 11.4 8.4 16.5 20.2 16.8 34 0.2 7.4-1.1 14.9-2 22.3-0.2 1.9-1.3 4.2-2.7 5.4-1.1 1-3.4 0.6-5.2 0.9-0.2-1.3-0.6-2.7-0.4-4 1.5-10.6 1.3-21.1-3.4-31-1.3-2.6-3.2-5.1-5.2-7.1-7.7-7.8-17.9-10.9-28.5-15.1 0.5 1.7 0.7 2.7 1 3.7 8 29.1 16 58.3 24 87.4 1.1 3.9 1.9 7.9 2.6 11.9 1 5.7-0.1 11.2-2.5 16.4-7.4 15.8-19.5 26.6-36.2 31.7-7.6 2.3-15.3 2.5-22.8-0.7-10.4-4.4-16.1-14-14.4-25.2 2.1-14.4 10.6-24.2 23.2-30.7 7.1-3.6 14.7-5 22.6-4.4 0.9 0.1 1.8 0.1 3 0.2-11.9-43.3-23.7-86.3-35.5-129.3zM448.4 125c-0.3 1.4-0.6 2.4-0.8 3.5-10.5 43.2-20.9 86.3-31.4 129.5-2.3 9.3-8 16-16.1 20.7-7.5 4.3-15.5 5.4-23.9 3.7-9.7-2-19.1-4.6-27.6-9.8-4.5-2.7-8.5-6.2-10.9-11-3.8-7.6-2.3-14.9 1.7-21.8 8.7-15.2 26.4-22.1 43.2-17 6.5 1.9 12.6 4.6 18.1 8.5 0.4 0.3 0.8 0.4 1.4 0.7 7.2-29.8 14.4-59.4 21.7-89.5-33.7-3.2-67.2-6.3-100.8-9.4-0.3 1.2-0.5 2.2-0.8 3.2-9 38.5-18.1 77-27.1 115.4-1 4.1-1.8 8.3-3.6 12.1-7.4 16.2-24.4 23.8-42 19.2-7.9-2.1-15.4-4.9-22.1-9.6-4.9-3.4-9.1-7.6-11.4-13.2-4.3-10.3-0.8-21.8 8.7-28.8 8.9-6.6 19.1-8.7 29.9-8.1 8.3 0.5 16 3 23.3 7 0.5 0.3 1.1 0.5 2 0.8 0.3-1.4 0.6-2.5 0.9-3.6 9.1-37.4 18.2-74.9 27.1-112.3 0.6-2.6 1.5-3.4 4.3-3.1 19.9 2 39.9 3.8 59.8 5.7l63.6 6c4 0.4 8.2 0.8 12.8 1.2z" fill="#3A4D51" p-id="5673"></path></svg>