<?xml version="1.0" standalone="no"?><!DOCTYPE svg PUBLIC "-//W3C//DTD SVG 1.1//EN" "http://www.w3.org/Graphics/SVG/1.1/DTD/svg11.dtd"><svg t="1723709054351" class="icon" viewBox="0 0 1024 1024" version="1.1" xmlns="http://www.w3.org/2000/svg" p-id="5522" xmlns:xlink="http://www.w3.org/1999/xlink" width="200" height="200"><path d="M345.552213 122.88c118.626987 0 214.016 77.687467 214.016 195.044693a69.95968 69.95968 0 0 0 67.085654 68.410027l81.7152 3.345067c107.451733 4.396373 191.829333 93.600427 190.2592 201.127253l-2.935467 199.59808c0 61.003093-48.387413 110.71488-108.40064 110.71488H238.045867c-60.0064 0-108.393813-49.711787-108.393814-110.810453l1.890987-471.87968C131.536213 200.567467 226.9184 122.88 345.552213 122.88zM264.9088 576.853333h-86.6304l-0.846507 213.551787c0 34.89792 27.27936 62.928213 60.607147 62.928213h62.416213v-116.26496h-4.491946a31.054507 31.054507 0 0 1-31.04768-31.054506l-0.006827-129.160534z m184.818347 0h-65.9456v129.160534a31.054507 31.054507 0 0 1-31.04768 31.054506h-4.491947V853.333333h137.024853v-116.26496h-4.48512a31.054507 31.054507 0 0 1-31.054506-31.054506V576.853333z m184.818346 0h-65.9456v129.160534a31.054507 31.054507 0 0 1-31.054506 31.054506h-4.491947V853.333333h137.03168v-116.26496H665.6a31.054507 31.054507 0 0 1-31.054507-31.054506V576.853333z m215.913814 0h-97.041067v129.160534a31.054507 31.054507 0 0 1-31.054507 31.054506h-4.491946V853.333333h69.4272c32.72704 0 59.624107-27.0336 60.57984-61.39904l2.962773-201.823573c0.068267-4.46464-0.068267-8.88832-0.382293-13.257387z m-329.64608 7.058774h-23.299414v105.3696h23.299414V583.912107z m184.818346 0H682.325333v105.3696h23.299414V583.912107z m-369.636693 0h-23.292587v105.3696h23.292587V583.912107zM345.552213 170.666667c-93.20448 0-164.788907 57.535147-166.208853 145.196373L178.469547 529.066667h660.45952c-22.084267-51.964587-72.567467-89.1904-132.512427-91.641174l-81.7152-3.345066c-62.13632-2.53952-111.588693-52.96128-112.913067-115.643734C511.788373 229.362347 439.698773 170.666667 345.55904 170.666667z" fill="#000000" p-id="5523"></path></svg>