<?xml version="1.0" standalone="no"?><!DOCTYPE svg PUBLIC "-//W3C//DTD SVG 1.1//EN" "http://www.w3.org/Graphics/SVG/1.1/DTD/svg11.dtd"><svg t="1723712775269" class="icon" viewBox="0 0 1902 1024" version="1.1" xmlns="http://www.w3.org/2000/svg" p-id="5983" xmlns:xlink="http://www.w3.org/1999/xlink" width="371.484375" height="200"><path d="M1788.416 1.706667V0h-138.581333v1.706667h-34.133334V0h-139.093333v1.706667h-34.133333V0h-139.093334v1.706667H1095.509333V0h-138.581333v1.706667h-49.152V0h-138.581333v1.706667H0V1024h1901.568V1.706667z m-138.581333 17.066666v591.530667h63.317333V1006.933333h-153.6V610.304h56.32V18.773333z m-173.226667 0v591.530667h65.194667V1006.933333h-153.6V610.304h54.272V18.773333z m-105.984 591.530667V1006.933333h-153.6V18.773333h87.04v591.530667zM1199.274667 18.773333V1006.933333h-153.6V610.304h51.2V18.773333z m-242.346667 0v591.530667h70.997333V1006.933333h-153.6V610.304h34.133334V18.773333z m-100.352 591.530667V1006.933333h-153.6V18.773333h66.901333v591.530667z m-620.202667 10.069333V18.773333h27.818667v601.6h78.506667V1006.933333H187.733333V620.373333z m123.392 0h43.008V18.773333h34.133334v601.6h76.629333V1006.933333h-153.6z m170.666667 0h44.714667V18.773333h109.397333V1006.933333h-153.6zM17.066667 18.773333h80.725333v601.6H170.666667V1006.933333H17.066667zM1884.501333 1006.933333h-153.6V610.304h58.197334V18.773333h96.085333z" fill="#231815" p-id="5984"></path></svg>